# Blender v2.79 (sub 0) OBJ File: ''
# www.blender.org
mtllib obj_interactive_robotdrumhead01_off.mtl
o pCylinder10_Untitled.005
v 0.361618 -0.001401 -0.478267
v 0.208780 0.151437 -0.478267
v 0.000000 0.207380 -0.478267
v -0.208780 0.151437 -0.478267
v -0.361618 -0.001401 -0.478267
v -0.417560 -0.210181 -0.478267
v -0.361618 -0.418961 -0.478267
v -0.208780 -0.571798 -0.478267
v 0.000000 -0.627741 -0.478267
v 0.208780 -0.571798 -0.478267
v 0.361618 -0.418961 -0.478267
v 0.417560 -0.210181 -0.478267
v 0.000000 -0.210181 0.396005
v 0.361618 -0.001401 0.328038
v 0.208780 0.151437 0.328038
v 0.000000 0.207379 0.328038
v -0.208780 0.151437 0.328038
v -0.361618 -0.001401 0.328038
v -0.417560 -0.210181 0.328038
v -0.361618 -0.418961 0.328038
v -0.208780 -0.571798 0.328038
v 0.000000 -0.627741 0.328038
v 0.208780 -0.571798 0.328038
v 0.361618 -0.418961 0.328038
v 0.417560 -0.210181 0.328038
v -0.507238 0.050907 0.692923
v -0.598877 0.170330 0.692923
v -0.598877 0.170330 0.829337
v -0.507238 0.050907 0.829337
v -0.526884 -0.098338 0.692923
v -0.519678 -0.043595 0.829337
v -0.519678 -0.043595 0.771131
v -0.526884 -0.098338 0.771131
v -0.748121 0.189977 0.692923
v -0.748121 0.189977 0.829337
v -0.671709 0.044178 0.829337
v -0.646308 -0.189977 0.692923
v -0.570689 -0.131951 0.771131
v -0.570689 -0.131951 0.829337
v -0.646308 -0.189977 0.829337
v -0.867545 0.098337 0.692923
v -0.867545 0.098337 0.771131
v -0.823741 0.131951 0.771131
v -0.823741 0.131951 0.829337
v -0.795552 -0.170331 0.692923
v -0.795552 -0.170331 0.829337
v -0.722720 -0.044178 0.829337
v -0.887192 -0.050907 0.692923
v -0.887192 -0.050907 0.829337
v -0.874752 0.043595 0.829337
v -0.874752 0.043595 0.771131
v -0.800020 -1.000000 -0.800020
v -1.000000 -0.800020 -1.000000
v 1.000000 -0.800020 -1.000000
v 0.800020 -1.000000 -0.800020
v 0.800020 -1.000000 0.509338
v -0.800020 -1.000000 0.509338
v -1.000000 -0.800020 0.709318
v -1.000000 0.800020 -1.000000
v 1.000000 0.800020 -1.000000
v 1.000000 -0.800020 0.709318
v -1.000000 0.800020 0.709318
v 1.000000 0.800020 0.709318
v -0.800020 1.000000 -0.800020
v 0.800020 1.000000 -0.800020
v -0.800020 1.000000 0.509338
v 0.800020 1.000000 0.509338
v 0.197351 0.131641 0.234221
v 0.000000 -0.210181 0.234221
v 0.341822 -0.012830 0.234221
v -0.000000 0.184521 0.234221
v 0.394702 -0.210181 0.234221
v -0.197351 0.131641 0.234221
v 0.341822 -0.407532 0.234221
v -0.341822 -0.012830 0.234221
v 0.197351 -0.552003 0.234221
v -0.394702 -0.210181 0.234221
v -0.000000 -0.604883 0.234221
v -0.341822 -0.407532 0.234221
v -0.197351 -0.552003 0.234221
v -0.000000 -0.637204 0.644132
v -0.000000 -0.683340 0.709318
v -0.213511 -0.579993 0.644132
v -0.236580 -0.619949 0.709318
v -0.369813 -0.423692 0.644132
v -0.409768 -0.446761 0.709318
v -0.427023 -0.210181 0.644132
v -0.473160 -0.210181 0.709318
v -0.369813 0.003331 0.644132
v -0.409768 0.026399 0.709318
v -0.213511 0.159632 0.644132
v -0.236580 0.199588 0.709318
v -0.000000 0.216842 0.644132
v -0.000000 0.262979 0.709318
v 0.213511 0.159632 0.644132
v 0.236580 0.199588 0.709318
v 0.369813 0.003331 0.644132
v 0.409768 0.026399 0.709318
v 0.427023 -0.210181 0.644132
v 0.473160 -0.210181 0.709318
v 0.369813 -0.423692 0.644132
v 0.409768 -0.446761 0.709318
v 0.213511 -0.579993 0.644132
v 0.236580 -0.619949 0.709318
v 0.590519 -0.196311 0.682871
v 0.645633 -0.196311 0.755047
v 0.755861 -0.196311 0.755047
v 0.810975 -0.196311 0.682871
v 0.509827 -0.115619 0.682871
v 0.605287 -0.115619 0.807884
v 0.796207 -0.115619 0.807884
v 0.891668 -0.115619 0.682871
v 0.480291 -0.005391 0.682871
v 0.590519 -0.005391 0.827223
v 0.810975 -0.005391 0.827223
v 0.921203 -0.005391 0.682871
v 0.509827 0.104837 0.682871
v 0.605287 0.104837 0.807884
v 0.796207 0.104837 0.807884
v 0.891668 0.104837 0.682871
v 0.590519 0.185529 0.682871
v 0.645633 0.185529 0.755047
v 0.755861 0.185529 0.755047
v 0.810975 0.185529 0.682871
v 0.700747 -0.225847 0.682871
v 0.700747 0.215065 0.682871
v 0.590519 -0.196311 0.694194
v 0.645633 -0.196311 0.766370
v 0.755861 -0.196311 0.766370
v 0.810975 -0.196311 0.694194
v 0.509827 -0.115619 0.694194
v 0.605287 -0.115619 0.819207
v 0.796207 -0.115619 0.819207
v 0.891668 -0.115619 0.694194
v 0.480291 -0.005391 0.694194
v 0.590519 -0.005391 0.838546
v 0.810975 -0.005391 0.838546
v 0.921203 -0.005391 0.694194
v 0.509827 0.104837 0.694194
v 0.605287 0.104837 0.819207
v 0.796207 0.104837 0.819207
v 0.891668 0.104837 0.694194
v 0.590519 0.185529 0.694194
v 0.645633 0.185529 0.766370
v 0.755861 0.185529 0.766370
v 0.810975 0.185529 0.694194
v 0.700747 -0.225847 0.694194
v 0.700747 0.215065 0.694194
vt 0.021085 0.876006
vt 0.034517 0.826608
vt 0.119981 0.876365
vt 0.070847 0.790545
vt 0.120340 0.777478
vt 0.169735 0.790907
vt 0.205797 0.827233
vt 0.218865 0.876723
vt 0.205439 0.926117
vt 0.169114 0.962180
vt 0.119623 0.975251
vt 0.070226 0.961826
vt 0.034159 0.925500
vt 0.022182 0.819538
vt 0.063700 0.778254
vt 0.120295 0.763260
vt 0.176804 0.778572
vt 0.218086 0.820085
vt 0.233082 0.876677
vt 0.217774 0.933185
vt 0.176263 0.974469
vt 0.119671 0.989468
vt 0.063159 0.974162
vt 0.021869 0.932650
vt 0.006867 0.876052
vt 0.530622 0.469907
vt 0.530622 0.425712
vt 0.580016 0.469907
vt 0.580016 0.425712
vt 0.499420 0.451374
vt 0.499420 0.469907
vt 0.629409 0.469907
vt 0.629409 0.425712
vt 0.944386 0.400332
vt 0.973646 0.474093
vt 0.896867 0.472937
vt 0.481174 0.451374
vt 0.463185 0.451374
vt 0.481174 0.425712
vt 0.431836 0.425712
vt 0.463185 0.471038
vt 0.431835 0.471038
vt 0.898259 0.380407
vt 0.678748 0.450295
vt 0.660759 0.450295
vt 0.678748 0.425712
vt 0.660759 0.469907
vt 0.942179 0.546940
vt 0.382442 0.471038
vt 0.382442 0.425712
vt 0.781731 0.471204
vt 0.736418 0.397202
vt 0.783124 0.378674
vt 0.301846 0.452453
vt 0.333049 0.425712
vt 0.333049 0.471038
vt 0.301846 0.471038
vt 0.895474 0.565468
vt 0.704951 0.470048
vt 0.780338 0.563734
vt 0.734211 0.543809
vt 0.811018 0.564196
vt 0.813804 0.379136
vt 0.840859 0.368403
vt 0.837738 0.575738
vt 0.867580 0.379945
vt 0.864794 0.565006
vt 0.283600 0.452453
vt 0.283600 0.425712
vt 0.235743 0.648101
vt 0.270813 0.601591
vt 0.597162 0.648101
vt 0.559955 0.601591
vt 0.294011 0.060166
vt 0.294011 0.358497
vt 0.049878 0.060166
vt 0.049878 0.358497
vt 0.012648 0.007435
vt 0.331305 0.007435
vt 0.235743 0.944705
vt 0.597162 0.944705
vt 0.977798 0.635195
vt 0.614950 0.634535
vt 0.941610 0.583819
vt 0.651324 0.583291
vt 0.651318 0.363786
vt 0.651318 0.044165
vt 0.992769 0.363786
vt 0.992769 0.044165
vt 0.651318 0.044165
vt 0.992769 0.044165
vt 0.651318 0.363786
vt 0.992769 0.363786
vt 0.272949 0.992948
vt 0.562092 0.992948
vt 0.627331 0.061326
vt 0.383198 0.061326
vt 0.664625 0.008595
vt 0.345968 0.008595
vt 0.664610 0.412388
vt 0.345854 0.412388
vt 0.627331 0.359657
vt 0.383198 0.359657
vt 0.940896 0.988913
vt 0.650609 0.988913
vt 0.977270 0.937604
vt 0.614422 0.937604
vt 0.814627 0.777506
vt 0.796117 0.746222
vt 0.827771 0.764081
vt 0.796558 0.782511
vt 0.832380 0.745772
vt 0.778360 0.777937
vt 0.827334 0.727601
vt 0.764895 0.764832
vt 0.813874 0.714502
vt 0.759854 0.746655
vt 0.795685 0.709927
vt 0.764472 0.728345
vt 0.777620 0.714926
vt 0.796045 0.683605
vt 0.796131 0.667477
vt 0.827317 0.691539
vt 0.835426 0.676877
vt 0.756871 0.676912
vt 0.764812 0.691630
vt 0.727097 0.705742
vt 0.741676 0.714508
vt 0.717173 0.746177
vt 0.733504 0.746270
vt 0.727059 0.786623
vt 0.741717 0.778006
vt 0.756816 0.815489
vt 0.764915 0.800846
vt 0.796126 0.824888
vt 0.796212 0.808786
vt 0.835403 0.815456
vt 0.827466 0.800752
vt 0.865176 0.786610
vt 0.850600 0.777851
vt 0.875084 0.746166
vt 0.858747 0.746078
vt 0.865180 0.705729
vt 0.850513 0.714356
vt 0.796336 0.660823
vt 0.753393 0.672245
vt 0.796023 0.832508
vt 0.753123 0.820929
vt 0.721916 0.703609
vt 0.710337 0.746509
vt 0.721759 0.789451
vt 0.838965 0.821085
vt 0.839236 0.672402
vt 0.870443 0.789722
vt 0.882022 0.746822
vt 0.870599 0.703879
vt 0.012534 0.411228
vt 0.331290 0.411228
vt 0.128905 0.612497
vt 0.115271 0.639325
vt 0.109850 0.614066
vt 0.082655 0.641277
vt 0.166740 0.612439
vt 0.181635 0.639251
vt 0.184297 0.613952
vt 0.211663 0.641137
vt 0.110219 0.677438
vt 0.072704 0.678439
vt 0.187246 0.677400
vt 0.221769 0.678368
vt 0.082680 0.715640
vt 0.115342 0.715870
vt 0.181796 0.715879
vt 0.211860 0.715657
vt 0.109956 0.742924
vt 0.129057 0.743513
vt 0.166981 0.743535
vt 0.184574 0.742967
vt 0.147036 0.604060
vt 0.147258 0.752944
vt 0.077479 0.442151
vt 0.063846 0.468978
vt 0.058425 0.443719
vt 0.031229 0.470930
vt 0.115315 0.442092
vt 0.130210 0.468904
vt 0.132871 0.443606
vt 0.160237 0.470791
vt 0.058794 0.507092
vt 0.021279 0.508092
vt 0.135820 0.507054
vt 0.170344 0.508021
vt 0.031254 0.545294
vt 0.063916 0.545523
vt 0.130371 0.545532
vt 0.160434 0.545310
vt 0.058531 0.572578
vt 0.077632 0.573166
vt 0.115556 0.573188
vt 0.133149 0.572620
vt 0.095611 0.433714
vt 0.095832 0.582597
vn 0.1607 -0.0000 0.9870
vn 0.1391 0.0803 0.9870
vn 0.0000 -0.0000 1.0000
vn 0.0803 0.1391 0.9870
vn 0.0000 0.1607 0.9870
vn -0.0803 0.1391 0.9870
vn -0.1391 0.0803 0.9870
vn -0.1607 -0.0000 0.9870
vn -0.1391 -0.0803 0.9870
vn -0.0803 -0.1391 0.9870
vn 0.0000 -0.1607 0.9870
vn 0.0803 -0.1391 0.9870
vn 0.1391 -0.0803 0.9870
vn 0.8660 0.5000 0.0000
vn 0.5000 0.8660 0.0000
vn 0.0000 1.0000 0.0000
vn -0.5000 0.8660 0.0000
vn -0.8660 0.5000 0.0000
vn -1.0000 0.0000 0.0000
vn -0.8660 -0.5000 -0.0000
vn -0.5000 -0.8660 -0.0000
vn -0.0000 -1.0000 -0.0000
vn 0.5000 -0.8660 -0.0000
vn 0.8660 -0.5000 -0.0000
vn 1.0000 0.0000 0.0000
vn 0.7933 0.6088 0.0000
vn 0.9914 -0.1305 -0.0000
vn 0.1305 0.9914 0.0000
vn 0.6088 -0.7933 -0.0000
vn -0.6088 0.7933 0.0000
vn -0.1305 -0.9914 0.0000
vn -0.9914 0.1305 0.0000
vn -0.7933 -0.6088 -0.0000
vn 0.0000 -0.7071 -0.7071
vn -0.7071 -0.7071 -0.0000
vn 0.0000 0.0000 -1.0000
vn 0.0000 -0.7071 0.7071
vn 0.0000 0.7071 -0.7071
vn -0.7071 0.7071 0.0000
vn 0.7071 0.7071 0.0000
vn 0.0000 0.7071 0.7071
vn 0.0091 0.8162 0.5777
vn 0.0085 0.8162 0.5777
vn -0.4002 0.7114 0.5777
vn -0.4007 0.7111 0.5777
vn 0.4155 0.7026 0.5777
vn 0.4160 0.7023 0.5777
vn 0.7111 0.4007 0.5777
vn 0.7114 0.4002 0.5777
vn 0.8162 -0.0085 0.5777
vn 0.8162 -0.0092 0.5777
vn 0.7026 -0.4155 0.5777
vn 0.7023 -0.4160 0.5777
vn 0.4007 -0.7111 0.5777
vn 0.4002 -0.7114 0.5777
vn -0.0085 -0.8162 0.5777
vn -0.0092 -0.8162 0.5777
vn -0.4155 -0.7026 0.5777
vn -0.4160 -0.7023 0.5777
vn -0.7111 -0.4007 0.5777
vn -0.7114 -0.4002 0.5777
vn -0.8162 0.0085 0.5777
vn -0.8162 0.0092 0.5777
vn -0.7026 0.4155 0.5777
vn -0.7023 0.4160 0.5777
vn -0.8650 -0.4955 0.0786
vn -0.8648 -0.4959 0.0786
vn -0.5014 -0.8617 0.0786
vn -0.5010 -0.8619 0.0786
vn -0.0034 -0.9969 0.0786
vn -0.0030 -0.9969 0.0786
vn -0.9969 0.0033 0.0786
vn -0.9969 0.0030 0.0786
vn 0.4955 -0.8650 0.0786
vn 0.4959 -0.8648 0.0786
vn -0.8616 0.5014 0.0786
vn -0.8618 0.5011 0.0786
vn 0.8616 -0.5014 0.0786
vn 0.8619 -0.5010 0.0786
vn -0.4955 0.8650 0.0786
vn -0.4958 0.8648 0.0786
vn 0.9969 -0.0033 0.0786
vn 0.9969 -0.0030 0.0786
vn 0.0034 0.9969 0.0786
vn 0.0030 0.9969 0.0786
vn 0.8650 0.4955 0.0786
vn 0.8648 0.4959 0.0786
vn 0.5014 0.8617 0.0786
vn 0.5011 0.8618 0.0786
vn 0.7071 -0.7071 -0.0000
vn -0.2504 -0.7677 0.5899
vn -0.3788 -0.3691 0.8487
vn -0.5554 -0.7154 0.4241
vn -0.7407 -0.3625 0.5656
vn 0.2094 -0.7386 0.6408
vn 0.3479 -0.3726 0.8603
vn 0.5554 -0.7154 0.4241
vn 0.7407 -0.3625 0.5656
vn -0.4026 0.0049 0.9154
vn -0.7948 -0.0000 0.6069
vn 0.4026 -0.0049 0.9154
vn 0.7948 -0.0000 0.6069
vn -0.7407 0.3625 0.5656
vn -0.3479 0.3726 0.8603
vn 0.3788 0.3691 0.8487
vn 0.7407 0.3625 0.5656
vn -0.5554 0.7154 0.4241
vn -0.2094 0.7386 0.6408
vn 0.2504 0.7677 0.5899
vn 0.5554 0.7154 0.4241
vn 0.0000 -0.9608 0.2773
vn -0.0000 0.9607 0.2775
usemtl drum_texture.002
s 1
f 25/1/1 14/2/2 13/3/3
f 14/2/2 15/4/4 13/3/3
f 15/4/4 16/5/5 13/3/3
f 16/5/5 17/6/6 13/3/3
f 17/6/6 18/7/7 13/3/3
f 18/7/7 19/8/8 13/3/3
f 19/8/8 20/9/9 13/3/3
f 20/9/9 21/10/10 13/3/3
f 21/10/10 22/11/11 13/3/3
f 22/11/11 23/12/12 13/3/3
f 23/12/12 24/13/13 13/3/3
f 24/13/13 25/1/1 13/3/3
f 1/14/14 2/15/15 14/2/14
f 14/2/14 2/15/15 15/4/15
f 2/15/15 3/16/16 15/4/15
f 15/4/15 3/16/16 16/5/16
f 3/16/16 4/17/17 16/5/16
f 16/5/16 4/17/17 17/6/17
f 4/17/17 5/18/18 17/6/17
f 17/6/17 5/18/18 18/7/18
f 5/18/18 6/19/19 18/7/18
f 18/7/18 6/19/19 19/8/19
f 6/19/19 7/20/20 19/8/19
f 19/8/19 7/20/20 20/9/20
f 7/20/20 8/21/21 20/9/20
f 20/9/20 8/21/21 21/10/21
f 8/21/21 9/22/22 21/10/21
f 21/10/21 9/22/22 22/11/22
f 9/22/22 10/23/23 22/11/22
f 22/11/22 10/23/23 23/12/23
f 10/23/23 11/24/24 23/12/23
f 23/12/23 11/24/24 24/13/24
f 11/24/24 12/25/25 24/13/24
f 24/13/24 12/25/25 25/1/25
f 12/25/25 1/14/14 25/1/25
f 25/1/25 1/14/14 14/2/14
f 29/26/26 26/27/26 28/28/26
f 28/28/26 26/27/26 27/29/26
f 32/30/27 26/27/27 29/26/27
f 29/26/27 31/31/27 32/30/27
f 28/28/28 27/29/28 35/32/28
f 35/32/28 27/29/28 34/33/28
f 29/34/3 28/35/3 36/36/3
f 33/37/29 38/38/29 30/39/29
f 30/39/29 38/38/29 37/40/29
f 38/38/29 39/41/29 40/42/29
f 31/43/3 29/34/3 36/36/3
f 42/44/30 43/45/30 41/46/30
f 41/46/30 43/45/30 34/33/30
f 43/45/30 44/47/30 35/32/30
f 36/36/3 28/35/3 35/48/3
f 46/49/31 45/50/31 40/42/31
f 40/42/31 45/50/31 37/40/31
f 47/51/3 40/52/3 39/53/3
f 51/54/32 48/55/32 49/56/32
f 49/56/32 50/57/32 51/54/32
f 36/36/3 35/48/3 44/58/3
f 49/56/33 48/55/33 46/49/33
f 46/49/33 48/55/33 45/50/33
f 47/51/3 46/59/3 40/52/3
f 50/60/3 49/61/3 47/51/3
f 49/61/3 46/59/3 47/51/3
f 47/51/15 51/62/15 50/60/15
f 47/51/15 39/53/15 38/63/15
f 33/64/3 42/65/3 38/63/3
f 38/63/3 42/65/3 51/62/3
f 36/36/21 32/66/21 31/43/21
f 36/36/21 44/58/21 43/67/21
f 33/64/3 32/66/3 42/65/3
f 42/65/3 32/66/3 43/67/3
f 38/63/15 51/62/15 47/51/15
f 43/67/21 32/66/21 36/36/21
f 34/33/30 43/45/30 35/32/30
f 42/68/32 41/69/32 51/54/32
f 51/54/32 41/69/32 48/55/32
f 33/37/27 30/39/27 32/30/27
f 32/30/27 30/39/27 26/27/27
f 37/40/29 38/38/29 40/42/29
f 54/70/34 55/71/34 53/72/34
f 53/72/34 55/71/34 52/73/34
f 52/74/22 55/75/22 57/76/22
f 57/76/22 55/75/22 56/77/22
f 58/78/35 53/79/35 57/76/35
f 57/76/35 53/79/35 52/74/35
f 60/80/36 54/70/36 59/81/36
f 59/81/36 54/70/36 53/72/36
f 61/82/37 58/83/37 56/84/37
f 56/84/37 58/83/37 57/85/37
f 59/86/19 53/87/19 62/88/19
f 62/88/19 53/87/19 58/89/19
f 61/90/25 54/91/25 63/92/25
f 63/92/25 54/91/25 60/93/25
f 60/80/38 59/81/38 65/94/38
f 65/94/38 59/81/38 64/95/38
f 66/96/39 64/97/39 62/98/39
f 62/98/39 64/97/39 59/99/39
f 63/100/40 60/101/40 67/102/40
f 67/102/40 60/101/40 65/103/40
f 65/103/16 64/97/16 67/102/16
f 67/102/16 64/97/16 66/96/16
f 67/104/41 66/105/41 63/106/41
f 63/106/41 66/105/41 62/107/41
f 68/108/3 69/109/3 70/110/3
f 71/111/3 69/109/3 68/108/3
f 70/110/3 69/109/3 72/112/3
f 73/113/3 69/109/3 71/111/3
f 72/112/3 69/109/3 74/114/3
f 75/115/3 69/109/3 73/113/3
f 74/114/3 69/109/3 76/116/3
f 77/117/3 69/109/3 75/115/3
f 76/116/3 69/109/3 78/118/3
f 79/119/3 69/109/3 77/117/3
f 78/118/3 69/109/3 80/120/3
f 80/120/3 69/109/3 79/119/3
f 81/121/42 82/122/43 103/123/44
f 103/123/44 82/122/43 104/124/45
f 82/122/43 81/121/42 84/125/46
f 84/125/46 81/121/42 83/126/47
f 84/125/46 83/126/47 86/127/48
f 86/127/48 83/126/47 85/128/49
f 86/127/48 85/128/49 88/129/50
f 88/129/50 85/128/49 87/130/51
f 88/129/50 87/130/51 90/131/52
f 90/131/52 87/130/51 89/132/53
f 90/131/52 89/132/53 92/133/54
f 92/133/54 89/132/53 91/134/55
f 92/133/54 91/134/55 94/135/56
f 94/135/56 91/134/55 93/136/57
f 94/135/56 93/136/57 96/137/58
f 96/137/58 93/136/57 95/138/59
f 96/137/58 95/138/59 98/139/60
f 98/139/60 95/138/59 97/140/61
f 98/139/60 97/140/61 100/141/62
f 100/141/62 97/140/61 99/142/63
f 100/141/62 99/142/63 102/143/64
f 102/143/64 99/142/63 101/144/65
f 102/143/64 101/144/65 104/124/45
f 104/124/45 101/144/65 103/123/44
f 61/82/3 82/145/3 58/83/3
f 82/145/3 84/146/3 58/83/3
f 94/147/3 62/107/3 92/148/3
f 84/146/3 86/149/3 58/83/3
f 88/150/3 58/83/3 86/149/3
f 88/150/3 90/151/3 62/107/3
f 62/107/3 90/151/3 92/148/3
f 62/107/3 94/147/3 63/106/3
f 94/147/3 96/152/3 63/106/3
f 82/145/3 61/82/3 104/153/3
f 96/152/3 98/154/3 63/106/3
f 100/155/3 63/106/3 98/154/3
f 100/155/3 102/156/3 61/82/3
f 102/156/3 104/153/3 61/82/3
f 70/110/66 97/140/67 68/108/68
f 68/108/68 97/140/67 95/138/69
f 68/108/68 95/138/69 71/111/70
f 71/111/70 95/138/69 93/136/71
f 72/112/72 99/142/73 70/110/66
f 70/110/66 99/142/73 97/140/67
f 71/111/70 93/136/71 73/113/74
f 73/113/74 93/136/71 91/134/75
f 74/114/76 101/144/77 72/112/72
f 72/112/72 101/144/77 99/142/73
f 73/113/74 91/134/75 75/115/78
f 75/115/78 91/134/75 89/132/79
f 76/116/80 103/123/81 74/114/76
f 74/114/76 103/123/81 101/144/77
f 75/115/78 89/132/79 77/117/82
f 77/117/82 89/132/79 87/130/83
f 78/118/84 81/121/85 76/116/80
f 76/116/80 81/121/85 103/123/81
f 77/117/82 87/130/83 79/119/86
f 79/119/86 87/130/83 85/128/87
f 80/120/88 83/126/89 78/118/84
f 78/118/84 83/126/89 81/121/85
f 79/119/86 85/128/87 80/120/88
f 80/120/88 85/128/87 83/126/89
f 61/82/3 63/106/3 100/155/3
f 62/107/3 58/83/3 88/150/3
f 56/77/90 55/75/90 61/157/90
f 61/157/90 55/75/90 54/158/90
f 106/159/91 110/160/92 105/161/93
f 105/161/93 110/160/92 109/162/94
f 106/159/91 107/163/95 110/160/92
f 110/160/92 107/163/95 111/164/96
f 107/163/95 108/165/97 111/164/96
f 111/164/96 108/165/97 112/166/98
f 110/160/92 114/167/99 109/162/94
f 109/162/94 114/167/99 113/168/100
f 110/160/92 111/164/96 114/167/99
f 114/167/99 111/164/96 115/169/101
f 111/164/96 112/166/98 115/169/101
f 115/169/101 112/166/98 116/170/102
f 113/168/100 114/167/99 117/171/103
f 117/171/103 114/167/99 118/172/104
f 114/167/99 115/169/101 118/172/104
f 118/172/104 115/169/101 119/173/105
f 116/170/102 120/174/106 115/169/101
f 115/169/101 120/174/106 119/173/105
f 117/171/103 118/172/104 121/175/107
f 121/175/107 118/172/104 122/176/108
f 118/172/104 119/173/105 122/176/108
f 122/176/108 119/173/105 123/177/109
f 120/174/106 124/178/110 119/173/105
f 119/173/105 124/178/110 123/177/109
f 106/159/91 105/161/93 125/179/111
f 107/163/95 106/159/91 125/179/111
f 108/165/97 107/163/95 125/179/111
f 121/175/107 122/176/108 126/180/112
f 122/176/108 123/177/109 126/180/112
f 123/177/109 124/178/110 126/180/112
f 128/181/91 132/182/92 127/183/93
f 127/183/93 132/182/92 131/184/94
f 128/181/91 129/185/95 132/182/92
f 132/182/92 129/185/95 133/186/96
f 129/185/95 130/187/97 133/186/96
f 133/186/96 130/187/97 134/188/98
f 132/182/92 136/189/99 131/184/94
f 131/184/94 136/189/99 135/190/100
f 132/182/92 133/186/96 136/189/99
f 136/189/99 133/186/96 137/191/101
f 133/186/96 134/188/98 137/191/101
f 137/191/101 134/188/98 138/192/102
f 135/190/100 136/189/99 139/193/103
f 139/193/103 136/189/99 140/194/104
f 136/189/99 137/191/101 140/194/104
f 140/194/104 137/191/101 141/195/105
f 138/192/102 142/196/106 137/191/101
f 137/191/101 142/196/106 141/195/105
f 139/193/103 140/194/104 143/197/107
f 143/197/107 140/194/104 144/198/108
f 140/194/104 141/195/105 144/198/108
f 144/198/108 141/195/105 145/199/109
f 142/196/106 146/200/110 141/195/105
f 141/195/105 146/200/110 145/199/109
f 128/181/91 127/183/93 147/201/111
f 129/185/95 128/181/91 147/201/111
f 130/187/97 129/185/95 147/201/111
f 143/197/107 144/198/108 148/202/112
f 144/198/108 145/199/109 148/202/112
f 145/199/109 146/200/110 148/202/112
