# Blender v2.79 (sub 0) OBJ File: ''
# www.blender.org
mtllib obj_interactive_sensor_off.mtl
o polySurface26_Untitled.004
v 0.287043 0.445374 0.453110
v 0.222809 0.381142 0.453110
v 0.222809 0.288691 0.453110
v 0.286892 0.223061 0.453110
v 0.379490 0.445374 0.453110
v 0.379643 0.223061 0.453110
v 0.445122 0.381290 0.453110
v 0.445122 0.288540 0.453110
v 0.306892 0.397675 0.485935
v 0.270508 0.361286 0.485935
v 0.270508 0.308557 0.485935
v 0.306593 0.270760 0.485935
v 0.359623 0.397675 0.485935
v 0.359924 0.270760 0.485935
v 0.397423 0.361587 0.485935
v 0.397423 0.308258 0.485935
v 0.379490 0.445374 0.051503
v 0.287043 0.445374 0.051503
v 0.445122 0.288540 0.051503
v 0.445122 0.381290 0.051503
v 0.379490 0.445374 0.321734
v 0.287043 0.445374 0.321734
v 0.445122 0.288540 0.321734
v 0.445122 0.381290 0.321734
v 0.171497 0.329369 0.051503
v -0.206354 0.329369 0.051503
v -0.423565 0.112156 0.051503
v -0.423565 -0.200476 0.051503
v -0.206863 -0.422409 0.051503
v 0.106787 -0.422409 0.051503
v 0.328213 -0.200985 0.051503
v 0.328213 0.171631 0.051503
v 0.171497 0.329369 0.321734
v -0.206354 0.329369 0.321734
v -0.423565 0.112156 0.321734
v -0.423565 -0.200476 0.321733
v -0.206863 -0.422409 0.321733
v 0.106787 -0.422409 0.321733
v 0.328213 -0.200985 0.321733
v 0.328213 0.171631 0.321734
v -0.500000 -0.500000 0.100000
v 0.500000 -0.500000 0.100000
v -0.500000 0.500000 0.100000
v 0.500000 0.500000 0.100000
v -0.500000 0.500000 -0.500000
v 0.500000 0.500000 -0.500000
v -0.500000 -0.500000 -0.500000
v 0.500000 -0.500000 -0.500000
v 0.396626 0.486424 0.253111
v 0.269989 0.486424 0.253111
v 0.486168 0.271557 0.253111
v 0.486168 0.398193 0.253111
v 0.396626 0.486423 0.453110
v 0.269989 0.486423 0.453110
v 0.486168 0.271557 0.453110
v 0.486168 0.398193 0.453110
v 0.287043 0.445374 0.453110
v 0.222809 0.381142 0.453110
v 0.222809 0.288691 0.453110
v 0.286892 0.223061 0.453110
v 0.379490 0.445374 0.453110
v 0.379643 0.223061 0.453110
v 0.445122 0.381290 0.453110
v 0.445122 0.288540 0.453110
v 0.171623 0.388313 0.253111
v -0.230452 0.388313 0.253111
v -0.482513 0.136253 0.253111
v -0.482513 -0.225535 0.253111
v -0.230452 -0.481358 0.253111
v 0.131336 -0.481358 0.253111
v 0.387157 -0.225535 0.253111
v 0.387157 0.172966 0.253111
v 0.171623 0.388313 0.453110
v -0.230452 0.388313 0.453110
v -0.482513 0.136253 0.453110
v -0.482513 -0.225535 0.453110
v -0.230452 -0.481358 0.453110
v 0.131336 -0.481358 0.453110
v 0.387157 -0.225535 0.453110
v 0.387157 0.172966 0.453110
v -0.206354 0.329369 0.453110
v -0.423565 0.112156 0.453110
v -0.423565 -0.200476 0.453110
v -0.206863 -0.422409 0.453110
v 0.106277 0.329369 0.453110
v 0.106787 -0.422409 0.453110
v 0.328213 0.112664 0.453110
v 0.328213 -0.200985 0.453110
v -0.139222 0.168068 0.546890
v -0.262266 0.045024 0.546890
v -0.262266 -0.133292 0.546890
v -0.140232 -0.261110 0.546890
v 0.039093 0.168068 0.546890
v 0.040107 -0.261110 0.546890
v 0.166912 0.046034 0.546890
v 0.166912 -0.134305 0.546890
v -0.380001 0.500000 -0.020000
v 0.380001 0.500000 -0.020000
v 0.380001 0.500000 -0.380001
v -0.380001 0.500000 -0.380001
v -0.380001 0.400002 -0.020000
v 0.380001 0.400002 -0.020000
v 0.380001 0.400002 -0.380001
v -0.380001 0.400002 -0.380001
v -0.306999 0.400002 -0.093000
v 0.306999 0.400002 -0.093000
v 0.306999 0.400002 -0.306999
v -0.306999 0.400002 -0.306999
v -0.306999 0.500000 -0.093000
v 0.306999 0.500000 -0.093000
v 0.306999 0.500000 -0.306999
v -0.306999 0.500000 -0.306999
v 0.287043 0.445374 0.353111
v 0.222809 0.381142 0.353111
v 0.222809 0.288691 0.353111
v 0.286892 0.223061 0.353111
v 0.379490 0.445374 0.353111
v 0.379643 0.223061 0.353111
v 0.445122 0.381290 0.353111
v 0.445122 0.288540 0.353111
v 0.306892 0.397675 0.385937
v 0.270508 0.361286 0.385937
v 0.270508 0.308557 0.385937
v 0.306593 0.270760 0.385937
v 0.359623 0.397675 0.385937
v 0.359924 0.270760 0.385937
v 0.397423 0.361587 0.385937
v 0.397423 0.308258 0.385937
vt 0.826778 0.397148
vt 0.826778 0.373221
vt 0.843278 0.413471
vt 0.843061 0.355890
vt 0.868205 0.413471
vt 0.867257 0.355889
vt 0.884747 0.396692
vt 0.884747 0.372520
vt 0.832367 0.440558
vt 0.799945 0.408425
vt 0.799945 0.362211
vt 0.831797 0.329128
vt 0.879632 0.440558
vt 0.877982 0.329128
vt 0.911550 0.407355
vt 0.911550 0.361024
vt 0.756248 0.253538
vt 0.763910 0.239340
vt 0.797747 0.275932
vt 0.805408 0.261735
vt 0.818977 0.236591
vt 0.777478 0.214197
vt 0.740961 0.281868
vt 0.748647 0.267624
vt 0.782460 0.304262
vt 0.790146 0.290018
vt 0.808791 0.156170
vt 0.850290 0.178564
vt 0.834248 0.108997
vt 0.875747 0.131390
vt 0.860156 0.060986
vt 0.901655 0.083380
vt 0.885861 0.013351
vt 0.927360 0.035745
vt 0.644438 0.460735
vt 0.670430 0.412568
vt 0.685937 0.483129
vt 0.711930 0.434962
vt 0.696381 0.364480
vt 0.737880 0.386874
vt 0.727260 0.307258
vt 0.768758 0.329652
vt 0.626804 0.983479
vt 0.322404 0.983479
vt 0.626804 0.679054
vt 0.322404 0.679055
vt 0.626803 0.496393
vt 0.322404 0.496393
vt 0.626804 0.192008
vt 0.322404 0.192008
vt 0.322404 0.009377
vt 0.626803 0.009377
vt 0.018569 0.496393
vt 0.018569 0.679054
vt 0.931862 0.496393
vt 0.931862 0.679054
vt 0.945172 0.419657
vt 0.945172 0.390512
vt 0.991109 0.419657
vt 0.991109 0.390512
vt 0.991109 0.358806
vt 0.945172 0.358806
vt 0.945173 0.477750
vt 0.945173 0.448512
vt 0.991109 0.477750
vt 0.991109 0.448512
vt 0.867049 0.954548
vt 0.751535 0.954548
vt 0.848599 0.937317
vt 0.758721 0.937317
vt 0.932306 0.986900
vt 0.895396 0.986900
vt 0.928376 0.975168
vt 0.901347 0.975168
vt 0.959565 0.963752
vt 0.947523 0.958051
vt 0.959565 0.925629
vt 0.947523 0.929931
vt 0.945172 0.267140
vt 0.991109 0.267140
vt 0.945172 0.185974
vt 0.991109 0.185974
vt 0.945172 0.103477
vt 0.991109 0.103477
vt 0.945172 0.021479
vt 0.991109 0.021479
vt 0.945172 0.770657
vt 0.945172 0.686599
vt 0.991109 0.770657
vt 0.991109 0.686599
vt 0.945173 0.602588
vt 0.991109 0.602588
vt 0.945173 0.510082
vt 0.991109 0.510082
vt 0.082809 0.374443
vt 0.083024 0.311979
vt 0.125602 0.417766
vt 0.125621 0.267358
vt 0.188558 0.417766
vt 0.188558 0.267305
vt 0.233974 0.375519
vt 0.233974 0.311905
vt 0.678993 0.880871
vt 0.696185 0.873832
vt 0.678993 0.776934
vt 0.696185 0.784036
vt 0.750152 0.701346
vt 0.757298 0.718592
vt 0.855483 0.701345
vt 0.848527 0.718592
vt 0.932047 0.775271
vt 0.914667 0.782629
vt 0.098103 0.483740
vt 0.016456 0.401546
vt 0.017229 0.284537
vt 0.098299 0.201312
vt 0.215560 0.483740
vt 0.215566 0.201312
vt 0.298806 0.402466
vt 0.298772 0.284258
vt 0.167939 0.010049
vt 0.217965 0.060821
vt 0.167939 0.182650
vt 0.217965 0.132624
vt 0.068619 0.202121
vt 0.043486 0.202121
vt 0.025715 0.159477
vt 0.025715 0.184610
vt 0.088141 0.182649
vt 0.096137 0.010049
vt 0.045365 0.139911
vt 0.045365 0.060821
vt 0.932047 0.894208
vt 0.914667 0.876121
vt 0.929498 0.909034
vt 0.884057 0.953700
vt 0.884057 0.926576
vt 0.902087 0.908200
vt 0.025998 0.713867
vt 0.286641 0.713867
vt 0.025998 0.804960
vt 0.286641 0.804960
vt 0.590808 0.642536
vt 0.359454 0.642535
vt 0.359454 0.532939
vt 0.590809 0.532938
vt 0.258340 0.992169
vt 0.046086 0.992169
vt 0.258340 0.963696
vt 0.046086 0.963696
vt 0.017800 0.963696
vt 0.017799 0.863624
vt 0.046086 0.863624
vt 0.046086 0.836082
vt 0.258340 0.836082
vt 0.258340 0.863624
vt 0.286015 0.863624
vt 0.286015 0.963696
vt 0.237617 0.943809
vt 0.065987 0.943810
vt 0.065987 0.884296
vt 0.237616 0.884296
vt 0.025998 0.695187
vt 0.286641 0.695187
vt 0.304131 0.713867
vt 0.304131 0.804960
vt 0.286641 0.824977
vt 0.025998 0.824977
vt 0.007792 0.804960
vt 0.007792 0.713867
vt 0.690215 0.108725
vt 0.690215 0.084799
vt 0.706714 0.125049
vt 0.706498 0.067467
vt 0.731642 0.125049
vt 0.730694 0.067467
vt 0.748184 0.108270
vt 0.748184 0.084097
vt 0.695803 0.152135
vt 0.663381 0.120002
vt 0.663381 0.073789
vt 0.695234 0.040705
vt 0.743069 0.152135
vt 0.741418 0.040705
vt 0.774987 0.118933
vt 0.774987 0.072602
vn -0.3437 0.1406 0.9285
vn -0.3449 -0.1380 0.9284
vn -0.1142 0.2792 0.9534
vn -0.1183 -0.2797 0.9528
vn 0.1118 0.2793 0.9537
vn 0.1158 -0.2799 0.9530
vn 0.3392 0.1434 0.9297
vn 0.3404 -0.1408 0.9297
vn -0.2034 0.4962 0.8440
vn -0.4962 0.2034 0.8440
vn -0.4980 -0.2024 0.8432
vn -0.2063 -0.4939 0.8447
vn 0.2021 0.4983 0.8431
vn 0.2053 -0.4958 0.8438
vn 0.4939 0.2063 0.8447
vn 0.4958 -0.2053 0.8438
vn 0.0000 1.0000 0.0000
vn -0.7085 0.7057 0.0000
vn 1.0000 -0.0000 0.0000
vn 0.6986 0.7155 0.0000
vn -0.7071 0.7071 0.0000
vn -1.0000 0.0000 0.0000
vn -0.7155 -0.6986 0.0000
vn 0.0000 -1.0000 -0.0000
vn 0.7071 -0.7071 -0.0000
vn 0.0000 -0.0000 1.0000
vn 0.0000 0.0000 -1.0000
vn -0.7062 0.7080 0.0000
vn 0.7019 0.7123 0.0000
vn -0.7123 -0.7019 0.0000
vn -0.2971 0.1215 0.9471
vn -0.2981 -0.1192 0.9471
vn -0.0981 0.2399 0.9658
vn -0.1016 -0.2404 0.9653
vn 0.0960 0.2400 0.9660
vn 0.0995 -0.2405 0.9655
vn 0.2931 0.1239 0.9480
vn 0.2941 -0.1216 0.9480
vn -0.1794 0.4376 0.8811
vn -0.4376 0.1795 0.8811
vn -0.4395 -0.1783 0.8804
vn -0.1818 -0.4355 0.8817
vn 0.1785 0.4392 0.8805
vn 0.1811 -0.4373 0.8809
vn 0.4355 0.1819 0.8816
vn 0.4373 -0.1811 0.8809
vn 0.7056 -0.7086 0.0000
vn -0.4983 -0.2021 0.8431
vn 0.2050 -0.4960 0.8438
usemtl phong3
s 1
f 10/1/1 11/2/2 9/3/3
f 9/3/3 11/2/2 12/4/4
f 13/5/5 9/3/3 14/6/6
f 14/6/6 9/3/3 12/4/4
f 15/7/7 13/5/5 16/8/8
f 16/8/8 13/5/5 14/6/6
f 1/9/9 2/10/10 9/3/3
f 9/3/3 2/10/10 10/1/1
f 2/10/10 3/11/11 10/1/1
f 10/1/1 3/11/11 11/2/2
f 4/12/12 12/4/4 3/11/11
f 3/11/11 12/4/4 11/2/2
f 5/13/13 1/9/9 13/5/5
f 13/5/5 1/9/9 9/3/3
f 4/12/12 6/14/14 12/4/4
f 12/4/4 6/14/14 14/6/6
f 7/15/15 5/13/13 15/7/7
f 15/7/7 5/13/13 13/5/5
f 6/14/14 8/16/16 14/6/6
f 14/6/6 8/16/16 16/8/8
f 8/16/16 7/15/15 16/8/8
f 16/8/8 7/15/15 15/7/7
f 17/17/17 18/18/17 21/19/17
f 21/19/17 18/18/17 22/20/17
f 22/20/18 18/18/18 33/21/18
f 33/21/18 18/18/18 25/22/18
f 19/23/19 20/24/19 23/25/19
f 23/25/19 20/24/19 24/26/19
f 20/24/20 17/17/20 24/26/20
f 24/26/20 17/17/20 21/19/20
f 25/22/17 26/27/17 33/21/17
f 33/21/17 26/27/17 34/28/17
f 26/27/21 27/29/21 34/28/21
f 34/28/21 27/29/21 35/30/21
f 27/29/22 28/31/22 35/30/22
f 35/30/22 28/31/22 36/32/22
f 28/31/23 29/33/23 36/32/23
f 36/32/23 29/33/23 37/34/23
f 29/35/24 30/36/24 37/37/24
f 37/37/24 30/36/24 38/38/24
f 30/36/25 31/39/25 38/38/25
f 38/38/25 31/39/25 39/40/25
f 31/39/19 32/41/19 39/40/19
f 39/40/19 32/41/19 40/42/19
f 23/25/25 40/42/25 19/23/25
f 19/23/25 40/42/25 32/41/25
f 41/43/26 42/44/26 43/45/26
f 43/45/26 42/44/26 44/46/26
f 45/47/27 46/48/27 47/49/27
f 47/49/27 46/48/27 48/50/27
f 48/50/24 42/51/24 47/49/24
f 47/49/24 42/51/24 41/52/24
f 46/48/19 44/46/19 48/53/19
f 48/53/19 44/46/19 42/54/19
f 47/55/22 41/56/22 45/47/22
f 45/47/22 41/56/22 43/45/22
f 49/57/17 50/58/17 53/59/17
f 53/59/17 50/58/17 54/60/17
f 54/60/28 50/58/28 73/61/28
f 73/61/28 50/58/28 65/62/28
f 51/63/19 52/64/19 55/65/19
f 55/65/19 52/64/19 56/66/19
f 52/64/29 49/57/29 56/66/29
f 56/66/29 49/57/29 53/59/29
f 73/67/26 74/68/26 85/69/26
f 85/69/26 74/68/26 81/70/26
f 53/71/26 54/72/26 61/73/26
f 61/73/26 54/72/26 57/74/26
f 56/75/26 53/71/26 63/76/26
f 63/76/26 53/71/26 61/73/26
f 55/77/26 56/75/26 64/78/26
f 64/78/26 56/75/26 63/76/26
f 65/62/17 66/79/17 73/61/17
f 73/61/17 66/79/17 74/80/17
f 66/79/21 67/81/21 74/80/21
f 74/80/21 67/81/21 75/82/21
f 67/81/22 68/83/22 75/82/22
f 75/82/22 68/83/22 76/84/22
f 68/83/30 69/85/30 76/84/30
f 76/84/30 69/85/30 77/86/30
f 69/87/24 70/88/24 77/89/24
f 77/89/24 70/88/24 78/90/24
f 70/88/25 71/91/25 78/90/25
f 78/90/25 71/91/25 79/92/25
f 71/91/19 72/93/19 79/92/19
f 79/92/19 72/93/19 80/94/19
f 90/95/31 91/96/32 89/97/33
f 89/97/33 91/96/32 92/98/34
f 93/99/35 89/97/33 94/100/36
f 94/100/36 89/97/33 92/98/34
f 95/101/37 93/99/35 96/102/38
f 96/102/38 93/99/35 94/100/36
f 74/68/26 75/103/26 81/70/26
f 81/70/26 75/103/26 82/104/26
f 76/105/26 83/106/26 75/103/26
f 75/103/26 83/106/26 82/104/26
f 77/107/26 84/108/26 76/105/26
f 76/105/26 84/108/26 83/106/26
f 78/109/26 86/110/26 77/107/26
f 77/107/26 86/110/26 84/108/26
f 78/109/26 79/111/26 86/110/26
f 86/110/26 79/111/26 88/112/26
f 81/113/39 82/114/40 89/97/33
f 89/97/33 82/114/40 90/95/31
f 82/114/40 83/115/41 90/95/31
f 90/95/31 83/115/41 91/96/32
f 84/116/42 92/98/34 83/115/41
f 83/115/41 92/98/34 91/96/32
f 85/117/43 81/113/39 93/99/35
f 93/99/35 81/113/39 89/97/33
f 84/116/42 86/118/44 92/98/34
f 92/98/34 86/118/44 94/100/36
f 87/119/45 85/117/43 95/101/37
f 95/101/37 85/117/43 93/99/35
f 86/118/44 88/120/46 94/100/36
f 94/100/36 88/120/46 96/102/38
f 88/120/46 87/119/45 96/102/38
f 96/102/38 87/119/45 95/101/37
f 55/65/47 80/94/47 51/63/47
f 51/63/47 80/94/47 72/93/47
f 69/121/27 68/122/27 66/123/27
f 66/123/27 68/122/27 67/124/27
f 50/125/27 49/126/27 51/127/27
f 51/127/27 49/126/27 52/128/27
f 65/129/27 70/130/27 66/123/27
f 66/123/27 70/130/27 69/121/27
f 72/131/27 71/132/27 65/129/27
f 65/129/27 71/132/27 70/130/27
f 80/133/26 87/134/26 79/111/26
f 79/111/26 87/134/26 88/112/26
f 80/133/26 55/77/26 62/135/26
f 62/135/26 55/77/26 64/78/26
f 73/67/26 58/136/26 54/72/26
f 54/72/26 58/136/26 57/74/26
f 85/69/26 87/134/26 59/137/26
f 59/137/26 87/134/26 60/138/26
f 87/134/26 80/133/26 60/138/26
f 60/138/26 80/133/26 62/135/26
f 58/136/26 73/67/26 59/137/26
f 59/137/26 73/67/26 85/69/26
f 51/127/27 72/131/27 50/125/27
f 50/125/27 72/131/27 65/129/27
f 109/139/17 110/140/17 112/141/17
f 112/141/17 110/140/17 111/142/17
f 43/45/17 44/46/17 97/143/17
f 97/143/17 44/46/17 98/144/17
f 44/46/17 46/48/17 98/144/17
f 98/144/17 46/48/17 99/145/17
f 46/48/17 45/47/17 99/145/17
f 99/145/17 45/47/17 100/146/17
f 45/47/17 43/45/17 100/146/17
f 100/146/17 43/45/17 97/143/17
f 97/147/27 98/148/27 101/149/27
f 101/149/27 98/148/27 102/150/27
f 98/151/22 99/152/22 102/150/22
f 102/150/22 99/152/22 103/153/22
f 99/154/26 100/155/26 103/153/26
f 103/153/26 100/155/26 104/156/26
f 100/157/19 97/158/19 104/156/19
f 104/156/19 97/158/19 101/149/19
f 101/149/17 102/150/17 105/159/17
f 105/159/17 102/150/17 106/160/17
f 102/150/17 103/153/17 106/160/17
f 106/160/17 103/153/17 107/161/17
f 103/153/17 104/156/17 107/161/17
f 107/161/17 104/156/17 108/162/17
f 104/156/17 101/149/17 108/162/17
f 108/162/17 101/149/17 105/159/17
f 105/163/26 106/164/26 109/139/26
f 109/139/26 106/164/26 110/140/26
f 106/165/19 107/166/19 110/140/19
f 110/140/19 107/166/19 111/142/19
f 107/167/27 108/168/27 111/142/27
f 111/142/27 108/168/27 112/141/27
f 108/169/22 105/170/22 112/141/22
f 112/141/22 105/170/22 109/139/22
f 122/171/1 123/172/2 121/173/3
f 121/173/3 123/172/2 124/174/4
f 125/175/5 121/173/3 126/176/6
f 126/176/6 121/173/3 124/174/4
f 127/177/7 125/175/5 128/178/8
f 128/178/8 125/175/5 126/176/6
f 113/179/9 114/180/10 121/173/3
f 121/173/3 114/180/10 122/171/1
f 114/180/10 115/181/48 122/171/1
f 122/171/1 115/181/48 123/172/2
f 116/182/12 124/174/4 115/181/48
f 115/181/48 124/174/4 123/172/2
f 117/183/13 113/179/9 125/175/5
f 125/175/5 113/179/9 121/173/3
f 116/182/12 118/184/49 124/174/4
f 124/174/4 118/184/49 126/176/6
f 119/185/15 117/183/13 127/177/7
f 127/177/7 117/183/13 125/175/5
f 118/184/49 120/186/16 126/176/6
f 126/176/6 120/186/16 128/178/8
f 120/186/16 119/185/15 128/178/8
f 128/178/8 119/185/15 127/177/7
