# Blender v2.79 (sub 0) OBJ File: ''
# www.blender.org
mtllib obj_interactive_switch_off.mtl
o Animated_Swtich_Blendshaped_Untitled.009
v -0.500000 -0.499998 -0.500000
v -0.500000 -0.499998 0.500000
v -0.500000 -0.299997 -0.500000
v -0.500000 -0.299997 0.500000
v 0.500000 -0.299997 -0.500000
v 0.500000 -0.299997 0.500000
v 0.500000 -0.499998 -0.500000
v 0.500000 -0.499998 0.500000
v 0.094776 -0.299997 -0.430527
v -0.403923 -0.299997 -0.430527
v -0.403923 -0.299997 0.430523
v 0.094776 -0.299997 0.430523
v 0.067341 -0.241276 -0.381523
v -0.376488 -0.241276 -0.381523
v -0.376488 -0.241276 0.381523
v 0.067341 -0.241276 0.381523
v 0.159035 -0.415640 -0.281609
v 0.189362 -0.415640 -0.311928
v 0.189362 -0.333177 -0.311928
v 0.159035 -0.333177 -0.281609
v 0.189362 -0.415640 -0.099999
v 0.159035 -0.415640 -0.130325
v 0.189362 -0.333177 -0.099999
v 0.159035 -0.333177 -0.130325
v 0.410637 -0.333177 -0.311928
v 0.440964 -0.333177 -0.281609
v 0.410637 -0.415640 -0.311928
v 0.440964 -0.415640 -0.281609
v 0.440964 -0.333177 -0.130325
v 0.410637 -0.333177 -0.099999
v 0.440964 -0.415640 -0.130325
v 0.410637 -0.415640 -0.099999
v -0.351097 -0.381197 -0.392258
v -0.351097 -0.470228 0.332851
v -0.351097 -0.117065 -0.359833
v -0.351097 -0.206100 0.365280
v 0.041382 -0.116932 -0.360939
v 0.041382 -0.206100 0.365280
v 0.041382 -0.381057 -0.393364
v 0.041382 -0.470228 0.332851
v 0.159035 -0.315641 -0.281609
v 0.189362 -0.315641 -0.311928
v 0.189362 -0.233173 -0.311928
v 0.159035 -0.233173 -0.281609
v 0.189362 -0.315641 -0.099999
v 0.159035 -0.315641 -0.130325
v 0.189362 -0.233173 -0.099999
v 0.159035 -0.233173 -0.130325
v 0.410637 -0.233173 -0.311928
v 0.440964 -0.233173 -0.281609
v 0.410637 -0.315641 -0.311928
v 0.440964 -0.315641 -0.281609
v 0.440964 -0.233173 -0.130325
v 0.410637 -0.233173 -0.099999
v 0.440964 -0.315641 -0.130325
v 0.410637 -0.315641 -0.099999
v 0.159035 -0.315641 0.130325
v 0.189362 -0.315641 0.099998
v 0.189362 -0.233173 0.099998
v 0.159035 -0.233173 0.130325
v 0.189362 -0.315641 0.311932
v 0.159035 -0.315641 0.281607
v 0.189362 -0.233173 0.311932
v 0.159035 -0.233173 0.281607
v 0.410637 -0.233173 0.099998
v 0.440964 -0.233173 0.130325
v 0.410637 -0.315641 0.099998
v 0.440964 -0.315641 0.130325
v 0.440964 -0.233173 0.281607
v 0.410637 -0.233173 0.311932
v 0.440964 -0.315641 0.281607
v 0.410637 -0.315641 0.311932
v 0.159035 -0.415640 0.130325
v 0.189362 -0.415640 0.099998
v 0.189362 -0.333177 0.099998
v 0.159035 -0.333177 0.130325
v 0.189362 -0.415640 0.311932
v 0.159035 -0.415640 0.281607
v 0.189362 -0.333177 0.311932
v 0.159035 -0.333177 0.281607
v 0.410637 -0.333177 0.099998
v 0.440964 -0.333177 0.130325
v 0.410637 -0.415640 0.099998
v 0.440964 -0.415640 0.130325
v 0.440964 -0.333177 0.281607
v 0.410637 -0.333177 0.311932
v 0.440964 -0.415640 0.281607
v 0.410637 -0.415640 0.311932
vt 0.098122 0.014276
vt 0.483673 0.014276
vt 0.098125 0.091386
vt 0.483676 0.091384
vt 0.098125 0.476935
vt 0.483672 0.476934
vt 0.098122 0.554047
vt 0.483671 0.554051
vt 0.946334 0.476937
vt 0.560783 0.476932
vt 0.946334 0.091386
vt 0.560780 0.091388
vt 0.021010 0.476936
vt 0.021010 0.091385
vt 0.562132 0.991580
vt 0.335617 0.991580
vt 0.549633 0.956721
vt 0.348038 0.956963
vt 0.335115 0.575649
vt 0.561628 0.575365
vt 0.347617 0.610370
vt 0.549209 0.610121
vt 0.318150 0.588146
vt 0.318625 0.979258
vt 0.578622 0.587826
vt 0.579101 0.978944
vt 0.663828 0.799212
vt 0.649185 0.764084
vt 0.739545 0.799212
vt 0.754060 0.764084
vt 0.650056 0.975465
vt 0.664562 0.940286
vt 0.754843 0.975465
vt 0.740184 0.940286
vt 0.755025 0.814203
vt 0.790055 0.799557
vt 0.755025 0.924861
vt 0.790427 0.939362
vt 0.649195 0.925378
vt 0.613937 0.940023
vt 0.649195 0.814813
vt 0.613937 0.800310
vt 0.294824 0.611986
vt 0.294824 0.944066
vt 0.251702 0.611986
vt 0.251702 0.944066
vt 0.073425 0.944066
vt 0.073426 0.611986
vt 0.029948 0.611986
vt 0.029948 0.944066
vt 0.251702 0.986132
vt 0.073425 0.986132
vt 0.073426 0.569919
vt 0.251702 0.569919
vt 0.857244 0.800617
vt 0.842601 0.765489
vt 0.932961 0.800617
vt 0.947476 0.765489
vt 0.843472 0.976870
vt 0.857978 0.941691
vt 0.948259 0.976870
vt 0.933599 0.941691
vt 0.948441 0.815608
vt 0.983471 0.800961
vt 0.948441 0.926266
vt 0.983843 0.940767
vt 0.842611 0.926783
vt 0.807353 0.941428
vt 0.842611 0.816218
vt 0.807353 0.801715
vt 0.661996 0.538706
vt 0.647353 0.503578
vt 0.737713 0.538706
vt 0.752228 0.503578
vt 0.648225 0.714959
vt 0.662730 0.679780
vt 0.753012 0.714959
vt 0.738352 0.679780
vt 0.753194 0.553698
vt 0.788223 0.539051
vt 0.753194 0.664355
vt 0.788595 0.678856
vt 0.647364 0.664872
vt 0.612105 0.679517
vt 0.647364 0.554307
vt 0.612105 0.539804
vt 0.857244 0.540970
vt 0.842601 0.505842
vt 0.932960 0.540970
vt 0.947476 0.505842
vt 0.843472 0.717222
vt 0.857977 0.682043
vt 0.948259 0.717222
vt 0.933599 0.682043
vt 0.948441 0.555961
vt 0.983471 0.541314
vt 0.948441 0.666619
vt 0.983843 0.681119
vt 0.842611 0.667136
vt 0.807353 0.681780
vt 0.842611 0.556570
vt 0.807353 0.542068
vn -1.0000 0.0000 0.0000
vn 0.0000 1.0000 0.0000
vn 1.0000 0.0000 0.0000
vn 0.0000 -1.0000 -0.0000
vn 0.0000 -0.0000 1.0000
vn 0.0000 0.0000 -1.0000
vn 0.0000 0.6407 -0.7678
vn -0.0000 0.9958 -0.0916
vn 0.0000 0.6407 0.7678
vn -0.3826 -0.0000 0.9239
vn -0.3827 -0.0000 0.9239
vn 0.0000 0.9958 0.0916
vn -0.9060 0.4233 0.0000
vn 0.9060 0.4233 0.0000
vn -0.7070 0.0000 -0.7072
vn -0.7071 0.0000 0.7071
vn 0.7070 0.0000 -0.7072
vn 0.7071 0.0000 0.7071
vn 0.0000 0.9925 0.1219
vn 0.0000 -0.1219 0.9925
vn -0.0028 0.1218 -0.9925
vn -0.7071 0.0000 -0.7071
vn 0.7071 -0.0000 -0.7071
usemtl Button01:Switch01_Solo:phongE1
s 1
f 1/1/1 2/2/1 3/3/1
f 3/3/1 2/2/1 4/4/1
f 3/3/2 4/4/2 5/5/2
f 5/5/2 4/4/2 6/6/2
f 5/5/3 6/6/3 7/7/3
f 7/7/3 6/6/3 8/8/3
f 7/9/4 8/10/4 1/11/4
f 1/11/4 8/10/4 2/12/4
f 2/12/5 8/10/5 4/4/5
f 4/4/5 8/10/5 6/6/5
f 7/13/6 1/14/6 5/5/6
f 5/5/6 1/14/6 3/3/6
f 9/15/7 10/16/7 13/17/8
f 13/17/8 10/16/7 14/18/8
f 11/19/9 12/20/9 15/21/10
f 15/21/11 12/20/9 16/22/12
f 13/17/8 14/18/8 16/22/12
f 16/22/12 14/18/8 15/21/11
f 11/23/13 15/21/13 10/24/13
f 10/24/13 15/21/13 14/18/13
f 16/22/14 12/25/14 13/17/14
f 13/17/14 12/25/14 9/26/14
f 20/27/1 17/28/1 24/29/1
f 24/29/1 17/28/1 22/30/1
f 28/31/3 26/32/3 31/33/3
f 31/33/3 26/32/3 29/34/3
f 23/35/5 21/36/5 30/37/5
f 30/37/5 21/36/5 32/38/5
f 25/39/6 27/40/6 19/41/6
f 19/41/6 27/40/6 18/42/6
f 19/41/2 20/27/2 23/35/2
f 23/35/2 20/27/2 24/29/2
f 18/42/15 17/28/15 19/41/15
f 19/41/15 17/28/15 20/27/15
f 22/30/16 21/36/16 24/29/16
f 24/29/16 21/36/16 23/35/16
f 25/39/17 26/32/17 27/40/17
f 27/40/17 26/32/17 28/31/17
f 29/34/18 30/37/18 31/33/18
f 31/33/18 30/37/18 32/38/18
f 25/39/2 30/37/2 26/32/2
f 26/32/2 30/37/2 29/34/2
f 19/41/2 23/35/2 25/39/2
f 25/39/2 23/35/2 30/37/2
f 33/43/1 34/44/1 35/45/1
f 35/45/1 34/44/1 36/46/1
f 36/46/19 38/47/19 35/45/19
f 35/45/19 38/47/19 37/48/19
f 37/48/3 38/47/3 39/49/3
f 39/49/3 38/47/3 40/50/3
f 34/51/20 40/52/20 36/46/20
f 36/46/20 40/52/20 38/47/20
f 39/53/21 33/54/21 37/48/21
f 37/48/21 33/54/21 35/45/21
f 44/55/1 41/56/1 48/57/1
f 48/57/1 41/56/1 46/58/1
f 52/59/3 50/60/3 55/61/3
f 55/61/3 50/60/3 53/62/3
f 47/63/5 45/64/5 54/65/5
f 54/65/5 45/64/5 56/66/5
f 49/67/6 51/68/6 43/69/6
f 43/69/6 51/68/6 42/70/6
f 43/69/2 44/55/2 47/63/2
f 47/63/2 44/55/2 48/57/2
f 42/70/15 41/56/15 43/69/15
f 43/69/15 41/56/15 44/55/15
f 46/58/16 45/64/16 48/57/16
f 48/57/16 45/64/16 47/63/16
f 49/67/17 50/60/17 51/68/17
f 51/68/17 50/60/17 52/59/17
f 53/62/18 54/65/18 55/61/18
f 55/61/18 54/65/18 56/66/18
f 49/67/2 54/65/2 50/60/2
f 50/60/2 54/65/2 53/62/2
f 43/69/2 47/63/2 49/67/2
f 49/67/2 47/63/2 54/65/2
f 60/71/1 57/72/1 64/73/1
f 64/73/1 57/72/1 62/74/1
f 68/75/3 66/76/3 71/77/3
f 71/77/3 66/76/3 69/78/3
f 63/79/5 61/80/5 70/81/5
f 70/81/5 61/80/5 72/82/5
f 65/83/6 67/84/6 59/85/6
f 59/85/6 67/84/6 58/86/6
f 59/85/2 60/71/2 63/79/2
f 63/79/2 60/71/2 64/73/2
f 58/86/22 57/72/22 59/85/22
f 59/85/22 57/72/22 60/71/22
f 62/74/16 61/80/16 64/73/16
f 64/73/16 61/80/16 63/79/16
f 65/83/23 66/76/23 67/84/23
f 67/84/23 66/76/23 68/75/23
f 69/78/18 70/81/18 71/77/18
f 71/77/18 70/81/18 72/82/18
f 65/83/2 70/81/2 66/76/2
f 66/76/2 70/81/2 69/78/2
f 59/85/2 63/79/2 65/83/2
f 65/83/2 63/79/2 70/81/2
f 76/87/1 73/88/1 80/89/1
f 80/89/1 73/88/1 78/90/1
f 84/91/3 82/92/3 87/93/3
f 87/93/3 82/92/3 85/94/3
f 79/95/5 77/96/5 86/97/5
f 86/97/5 77/96/5 88/98/5
f 81/99/6 83/100/6 75/101/6
f 75/101/6 83/100/6 74/102/6
f 75/101/2 76/87/2 79/95/2
f 79/95/2 76/87/2 80/89/2
f 74/102/22 73/88/22 75/101/22
f 75/101/22 73/88/22 76/87/22
f 78/90/16 77/96/16 80/89/16
f 80/89/16 77/96/16 79/95/16
f 81/99/23 82/92/23 83/100/23
f 83/100/23 82/92/23 84/91/23
f 85/94/18 86/97/18 87/93/18
f 87/93/18 86/97/18 88/98/18
f 81/99/2 86/97/2 82/92/2
f 82/92/2 86/97/2 85/94/2
f 75/101/2 79/95/2 81/99/2
f 81/99/2 79/95/2 86/97/2
