# Blender v2.79 (sub 0) OBJ File: ''
# www.blender.org
mtllib obj_interactive_button_off.mtl
o Button2_Untitled.003
v -0.500000 -0.500000 0.500000
v 0.500000 -0.500000 0.500000
v -0.500000 -0.299999 0.500000
v 0.500000 -0.299999 0.500000
v -0.500000 -0.299999 -0.500000
v 0.500000 -0.299999 -0.500000
v -0.500000 -0.500000 -0.500000
v 0.500000 -0.500000 -0.500000
v -0.147255 -0.308107 -0.355503
v -0.355503 -0.308107 -0.147254
v -0.355503 -0.308107 0.147254
v -0.147254 -0.308107 0.355503
v 0.147254 -0.308107 0.355503
v 0.355503 -0.308107 0.147255
v 0.355503 -0.308107 -0.147254
v 0.147254 -0.308107 -0.355503
v -0.147255 -0.091892 -0.355503
v -0.355503 -0.091892 -0.147254
v -0.355503 -0.091892 0.147254
v -0.147254 -0.091892 0.355503
v 0.147254 -0.091892 0.355503
v 0.355503 -0.091892 0.147255
v 0.355503 -0.091892 -0.147254
v 0.147254 -0.091892 -0.355503
v -0.178329 -0.299999 -0.430523
v -0.430523 -0.299999 -0.178330
v -0.430523 -0.299999 0.178329
v -0.178329 -0.299999 0.430523
v 0.178329 -0.299999 0.430523
v 0.430523 -0.299999 0.178329
v 0.430523 -0.299999 -0.178330
v 0.178329 -0.299999 -0.430523
v -0.158031 -0.241278 -0.381523
v -0.381523 -0.241278 -0.158032
v -0.381523 -0.241278 0.158031
v -0.158031 -0.241278 0.381523
v 0.158031 -0.241278 0.381523
v 0.381523 -0.241278 0.158031
v 0.381523 -0.241278 -0.158032
v 0.158031 -0.241278 -0.381523
vt 0.011030 0.419437
vt 0.011030 0.028919
vt 0.030730 0.419679
vt 0.030730 0.029161
vt 0.421248 0.419679
vt 0.421248 0.029161
vt 0.439319 0.419679
vt 0.439319 0.029161
vt 0.578944 0.040470
vt 0.969462 0.040470
vt 0.578944 0.430988
vt 0.969462 0.430988
vt 0.030730 0.012046
vt 0.421248 0.012046
vt 0.414313 0.439282
vt 0.030730 0.439282
vt 0.680857 0.992798
vt 0.557080 0.868735
vt 0.713562 0.912225
vt 0.637567 0.836082
vt 0.557079 0.699190
vt 0.637599 0.731760
vt 0.680888 0.575110
vt 0.713691 0.655695
vt 0.850979 0.575094
vt 0.818275 0.655665
vt 0.974755 0.699156
vt 0.894271 0.731809
vt 0.974759 0.868701
vt 0.894239 0.836133
vt 0.850951 0.992784
vt 0.818146 0.912203
vt 0.364684 0.613082
vt 0.365197 0.503609
vt 0.414796 0.592115
vt 0.415098 0.524914
vt 0.440351 0.428982
vt 0.461355 0.479010
vt 0.549847 0.429249
vt 0.528565 0.479259
vt 0.624721 0.504638
vt 0.574611 0.525605
vt 0.624208 0.614111
vt 0.574308 0.592807
vt 0.549055 0.688739
vt 0.528051 0.638712
vt 0.439558 0.688474
vt 0.460838 0.638465
vn 0.0000 -0.0000 1.0000
vn 0.0000 1.0000 0.0000
vn 0.0000 0.0000 -1.0000
vn 0.0000 -1.0000 -0.0000
vn 1.0000 0.0000 0.0000
vn -1.0000 0.0000 0.0000
vn -0.3827 0.0000 -0.9239
vn -0.9239 0.0000 -0.3827
vn -0.9239 -0.0000 0.3827
vn -0.3827 -0.0000 0.9239
vn 0.3827 -0.0000 0.9239
vn 0.9239 -0.0000 0.3827
vn 0.9239 0.0000 -0.3827
vn 0.3827 0.0000 -0.9239
vn -0.2840 0.6703 -0.6856
vn -0.6856 0.6703 -0.2840
vn -0.0728 0.9817 -0.1759
vn -0.1147 0.9923 -0.0475
vn -0.6856 0.6703 0.2840
vn -0.1147 0.9923 0.0475
vn -0.2840 0.6703 0.6856
vn -0.0728 0.9817 0.1759
vn 0.2840 0.6703 0.6856
vn 0.0729 0.9817 0.1759
vn 0.6856 0.6703 0.2840
vn 0.9239 -0.0000 0.3826
vn 0.6856 0.6703 -0.2840
vn 0.1147 0.9923 -0.0475
vn 0.2840 0.6703 -0.6856
vn 0.0728 0.9817 -0.1759
usemtl phongE1
s 1
f 1/1/1 2/2/1 3/3/1
f 3/3/1 2/2/1 4/4/1
f 3/3/2 4/4/2 5/5/2
f 5/5/2 4/4/2 6/6/2
f 5/5/3 6/6/3 7/7/3
f 7/7/3 6/6/3 8/8/3
f 7/9/4 8/10/4 1/11/4
f 1/11/4 8/10/4 2/12/4
f 2/13/5 8/14/5 4/4/5
f 4/4/5 8/14/5 6/6/5
f 7/15/6 1/16/6 5/5/6
f 5/5/6 1/16/6 3/3/6
f 9/17/7 10/18/8 17/19/7
f 17/19/7 10/18/8 18/20/8
f 10/18/8 11/21/9 18/20/8
f 18/20/8 11/21/9 19/22/9
f 11/21/9 12/23/10 19/22/9
f 19/22/9 12/23/10 20/24/10
f 12/23/10 13/25/11 20/24/10
f 20/24/10 13/25/11 21/26/11
f 13/25/11 14/27/12 21/26/11
f 21/26/11 14/27/12 22/28/12
f 14/27/12 15/29/13 22/28/12
f 22/28/12 15/29/13 23/30/13
f 15/29/13 16/31/14 23/30/13
f 23/30/13 16/31/14 24/32/14
f 16/31/14 9/17/7 24/32/14
f 24/32/14 9/17/7 17/19/7
f 21/26/2 22/28/2 20/24/2
f 20/24/2 22/28/2 19/22/2
f 18/20/2 19/22/2 23/30/2
f 23/30/2 19/22/2 22/28/2
f 23/30/2 24/32/2 18/20/2
f 18/20/2 24/32/2 17/19/2
f 25/33/15 26/34/16 33/35/17
f 33/35/17 26/34/16 34/36/18
f 26/34/16 27/37/19 34/36/18
f 34/36/18 27/37/19 35/38/20
f 27/37/19 28/39/21 35/38/20
f 35/38/20 28/39/21 36/40/22
f 28/39/21 29/41/23 36/40/22
f 36/40/22 29/41/23 37/42/24
f 29/41/23 30/43/25 37/42/24
f 37/42/24 30/43/25 38/44/26
f 30/43/25 31/45/27 38/44/26
f 38/44/26 31/45/27 39/46/28
f 31/45/27 32/47/29 39/46/28
f 39/46/28 32/47/29 40/48/30
f 32/47/29 25/33/15 40/48/30
f 40/48/30 25/33/15 33/35/17
f 37/42/24 38/44/26 36/40/22
f 36/40/22 38/44/26 35/38/20
f 34/36/18 35/38/20 39/46/28
f 39/46/28 35/38/20 38/44/26
f 39/46/28 40/48/30 34/36/18
f 34/36/18 40/48/30 33/35/17
