# Blender v2.79 (sub 0) OBJ File: ''
# www.blender.org
mtllib obj_interactive_horn01_off.mtl
o polySurface3_Untitled.001
v 0.143560 -0.500000 0.254777
v 0.143560 -0.500000 0.112444
v 0.143560 -0.038089 0.254777
v 0.143560 0.000317 0.219198
v 0.215959 -0.038089 0.254777
v 0.215959 0.000317 0.219198
v 0.143560 0.000317 0.148024
v 0.143560 -0.038089 0.112445
v 0.215959 -0.038089 0.112445
v 0.215959 0.000317 0.148024
v 0.215959 -0.431133 0.112445
v 0.215959 -0.431133 0.254777
v 0.417348 -0.431133 0.112444
v 0.417348 -0.431133 0.254777
v 0.417348 -0.500000 0.112444
v 0.417348 -0.500000 0.254777
v -0.143560 -0.500000 0.254777
v -0.143560 -0.500000 0.112444
v -0.143560 -0.038089 0.254777
v -0.143560 0.000317 0.219198
v -0.215959 -0.038089 0.254777
v -0.215959 0.000317 0.219198
v -0.143560 0.000317 0.148024
v -0.143560 -0.038089 0.112445
v -0.215959 -0.038089 0.112445
v -0.215959 0.000317 0.148024
v -0.215959 -0.431133 0.112445
v -0.215959 -0.431133 0.254777
v -0.417348 -0.431133 0.112444
v -0.417348 -0.431133 0.254777
v -0.417348 -0.500000 0.112444
v -0.417348 -0.500000 0.254777
v -0.085487 -0.372307 -0.215732
v -0.120896 -0.372307 -0.130245
v -0.085487 -0.372307 -0.044759
v 0.000000 -0.372307 -0.009349
v 0.085487 -0.372307 -0.044759
v 0.120896 -0.372307 -0.130245
v 0.085487 -0.372307 -0.215732
v 0.000000 -0.372307 -0.251142
v -0.157959 -0.303825 -0.288204
v -0.223387 -0.303825 -0.130245
v -0.157959 -0.303825 0.027713
v -0.000000 -0.303825 0.093142
v 0.157959 -0.303825 0.027713
v 0.223387 -0.303825 -0.130245
v 0.157959 -0.303825 -0.288204
v 0.000000 -0.303825 -0.353633
v -0.206383 -0.201334 -0.336628
v -0.291870 -0.201334 -0.130245
v -0.206383 -0.201334 0.076138
v -0.000000 -0.201334 0.161624
v 0.206383 -0.201334 0.076138
v 0.291870 -0.201334 -0.130245
v 0.206383 -0.201334 -0.336628
v 0.000000 -0.201334 -0.422115
v -0.223387 -0.080438 -0.353633
v -0.315917 -0.080438 -0.130245
v -0.223387 -0.080438 0.093142
v -0.000000 -0.080438 0.185672
v 0.223387 -0.080438 0.093142
v 0.315917 -0.080438 -0.130245
v 0.223387 -0.080438 -0.353633
v 0.000000 -0.080438 -0.446163
v -0.206383 0.040459 -0.336628
v -0.291870 0.040459 -0.130245
v -0.206383 0.040459 0.076138
v -0.000000 0.040459 0.161624
v 0.206383 0.040459 0.076138
v 0.291870 0.040459 -0.130245
v 0.206383 0.040459 -0.336628
v 0.000000 0.040459 -0.422115
v -0.157959 0.142950 -0.288204
v -0.223387 0.142950 -0.130245
v -0.157959 0.142950 0.027713
v -0.000000 0.142950 0.093142
v 0.157959 0.142950 0.027713
v 0.223387 0.142950 -0.130245
v 0.157959 0.142950 -0.288204
v 0.000000 0.142950 -0.353633
v -0.085487 0.211432 -0.215732
v -0.120896 0.211432 -0.130245
v -0.085487 0.211432 -0.044759
v 0.000000 0.211432 -0.009349
v 0.085487 0.211432 -0.044759
v 0.120896 0.211432 -0.130245
v 0.085487 0.211432 -0.215732
v 0.000000 0.211432 -0.251142
v 0.000000 -0.396355 -0.130245
v 0.000000 0.235480 -0.130245
v -0.144609 0.118599 0.321623
v -0.233982 -0.004413 0.321623
v -0.233982 -0.156463 0.321623
v -0.144609 -0.279474 0.321623
v 0.000000 -0.326461 0.321623
v 0.144609 -0.279474 0.321623
v 0.233982 -0.156463 0.321623
v 0.233982 -0.004413 0.321623
v 0.144609 0.118599 0.321623
v -0.000000 0.165585 0.321623
v -0.144609 0.118599 0.500000
v -0.233982 -0.004412 0.500000
v -0.233982 -0.156463 0.500000
v -0.144609 -0.279474 0.500000
v 0.000000 -0.326461 0.500000
v 0.144609 -0.279474 0.500000
v 0.233982 -0.156463 0.500000
v 0.233982 -0.004412 0.500000
v 0.144609 0.118599 0.500000
v -0.000000 0.165585 0.500000
v -0.103811 0.062446 0.256857
v -0.167970 -0.025861 0.256857
v -0.167970 -0.135015 0.256856
v -0.103811 -0.223322 0.256857
v 0.000000 -0.257052 0.256857
v 0.103811 -0.223322 0.256856
v 0.167970 -0.135015 0.256857
v 0.167970 -0.025861 0.256857
v 0.103811 0.062446 0.256857
v -0.000000 0.096177 0.256857
v -0.103811 0.062447 0.053773
v -0.167970 -0.025861 0.053773
v -0.167970 -0.135015 0.053773
v -0.103811 -0.223322 0.053773
v -0.000000 -0.257052 0.053773
v 0.103811 -0.223322 0.053773
v 0.167970 -0.135015 0.053773
v 0.167970 -0.025861 0.053773
v 0.103811 0.062447 0.053773
v -0.000000 0.096177 0.053773
v -0.000000 -0.080438 0.500000
vt 0.440824 0.893215
vt 0.397818 0.893215
vt 0.440824 0.936960
vt 0.397818 0.936960
vt 0.344321 0.587983
vt 0.344321 0.942864
vt 0.288681 0.640848
vt 0.288681 0.942864
vt 0.288682 0.942864
vt 0.344321 0.942864
vt 0.288682 0.640848
vt 0.344321 0.587983
vt 0.463024 0.870008
vt 0.377022 0.870008
vt 0.344321 0.983077
vt 0.288682 0.983077
vt 0.344321 0.983077
vt 0.288681 0.983077
vt 0.463024 0.632520
vt 0.377022 0.632520
vt 0.463024 0.303791
vt 0.463024 0.024691
vt 0.377022 0.303791
vt 0.377022 0.024691
vt 0.463024 0.510834
vt 0.463024 0.469222
vt 0.377022 0.510834
vt 0.377022 0.469222
vt 0.134221 0.640848
vt 0.134221 0.587983
vt 0.134221 0.587983
vt 0.134221 0.640848
vt 0.440824 0.893215
vt 0.440824 0.936960
vt 0.397818 0.893215
vt 0.397818 0.936960
vt 0.344321 0.587983
vt 0.288681 0.640848
vt 0.344321 0.942864
vt 0.288681 0.942864
vt 0.344321 0.587983
vt 0.344321 0.942864
vt 0.288682 0.640848
vt 0.288682 0.942864
vt 0.463024 0.870008
vt 0.377022 0.870008
vt 0.344321 0.983077
vt 0.288682 0.983077
vt 0.344321 0.983077
vt 0.288681 0.983077
vt 0.463024 0.632520
vt 0.377022 0.632520
vt 0.463024 0.303791
vt 0.377022 0.303791
vt 0.463024 0.024691
vt 0.377022 0.024691
vt 0.463024 0.510834
vt 0.377022 0.510834
vt 0.463024 0.469222
vt 0.377022 0.469222
vt 0.134221 0.587983
vt 0.134221 0.640848
vt 0.134221 0.587983
vt 0.134221 0.640848
vt 0.806362 0.073093
vt 0.847494 0.034505
vt 0.838591 0.132830
vt 0.925774 0.090555
vt 0.661270 0.535440
vt 0.701541 0.569314
vt 0.588094 0.585368
vt 0.669303 0.627071
vt 0.753776 0.578674
vt 0.753260 0.637435
vt 0.806218 0.566373
vt 0.838397 0.626046
vt 0.847500 0.527791
vt 0.925781 0.583874
vt 0.661307 0.042119
vt 0.701686 0.075917
vt 0.588118 0.092038
vt 0.669455 0.133587
vt 0.753954 0.085325
vt 0.753468 0.144080
vt 0.855817 0.193004
vt 0.973759 0.169226
vt 0.537841 0.656823
vt 0.650654 0.685900
vt 0.752720 0.692371
vt 0.855664 0.686146
vt 0.973752 0.662554
vt 0.537846 0.163492
vt 0.650725 0.192358
vt 0.752852 0.199028
vt 0.860960 0.253553
vt 0.987529 0.257336
vt 0.517578 0.742043
vt 0.644187 0.746047
vt 0.752549 0.746347
vt 0.860911 0.746649
vt 0.987519 0.750656
vt 0.517572 0.248718
vt 0.644140 0.252498
vt 0.752550 0.253025
vt 0.854375 0.313693
vt 0.967252 0.342562
vt 0.531348 0.830146
vt 0.649435 0.806551
vt 0.752379 0.800324
vt 0.854444 0.806795
vt 0.967255 0.835874
vt 0.531343 0.336826
vt 0.649284 0.313046
vt 0.752248 0.307022
vt 0.835644 0.372464
vt 0.916979 0.414016
vt 0.579321 0.908826
vt 0.666703 0.866651
vt 0.751839 0.855259
vt 0.835795 0.865622
vt 0.917001 0.907326
vt 0.579328 0.415496
vt 0.666510 0.373220
vt 0.751633 0.361969
vt 0.803412 0.430133
vt 0.843789 0.463932
vt 0.657604 0.964907
vt 0.698884 0.926323
vt 0.751325 0.914021
vt 0.803560 0.923378
vt 0.843831 0.957249
vt 0.657607 0.471542
vt 0.698738 0.432955
vt 0.751145 0.420724
vt 0.751304 0.015084
vt 0.751276 0.508380
vt 0.753793 0.490964
vt 0.753830 0.984313
vt 0.110810 0.345580
vt 0.110810 0.400261
vt 0.030435 0.345580
vt 0.030435 0.400261
vt 0.110810 0.455205
vt 0.030435 0.455205
vt 0.110810 0.510715
vt 0.030435 0.510715
vt 0.110810 0.569592
vt 0.030435 0.569592
vt 0.110810 0.014529
vt 0.110810 0.071105
vt 0.030435 0.014529
vt 0.030435 0.071105
vt 0.110810 0.126904
vt 0.030435 0.126904
vt 0.110810 0.182518
vt 0.030435 0.182519
vt 0.110810 0.236761
vt 0.030435 0.236761
vt 0.110810 0.291132
vt 0.030435 0.291132
vt 0.013039 0.894080
vt 0.144787 0.851252
vt 0.063115 0.963798
vt 0.013585 0.808585
vt 0.063962 0.739988
vt 0.144728 0.713945
vt 0.225486 0.740046
vt 0.275873 0.808639
vt 0.276493 0.894083
vt 0.226526 0.963774
vt 0.144847 0.990544
vt 0.155124 0.400261
vt 0.155124 0.345580
vt 0.155124 0.455205
vt 0.155124 0.510715
vt 0.155124 0.569592
vt 0.155124 0.071105
vt 0.155124 0.014529
vt 0.155124 0.126904
vt 0.155124 0.182519
vt 0.155124 0.236761
vt 0.155124 0.291132
vt 0.251789 0.400261
vt 0.251789 0.345580
vt 0.251789 0.455205
vt 0.251789 0.510715
vt 0.251789 0.569592
vt 0.251789 0.071105
vt 0.251789 0.014529
vt 0.251789 0.126904
vt 0.251789 0.182519
vt 0.251789 0.236761
vt 0.251789 0.291132
vn 0.0000 1.0000 0.0000
vn -0.0000 0.0000 -1.0000
vn 0.0000 -0.0000 1.0000
vn 1.0000 -0.0000 -0.0000
vn 0.0000 0.6796 0.7336
vn -0.0000 0.6796 -0.7336
vn -1.0000 0.0000 0.0000
vn -0.0000 -1.0000 -0.0000
vn -0.2906 -0.8958 -0.3364
vn -0.4433 -0.8958 -0.0324
vn -0.5046 -0.6674 -0.5477
vn -0.7441 -0.6674 -0.0305
vn -0.3364 -0.8958 0.2906
vn -0.5477 -0.6674 0.5046
vn -0.0324 -0.8958 0.4433
vn -0.0305 -0.6674 0.7441
vn 0.2906 -0.8958 0.3364
vn 0.5046 -0.6674 0.5477
vn 0.4433 -0.8958 0.0324
vn 0.7441 -0.6674 0.0305
vn 0.3364 -0.8958 -0.2906
vn 0.5477 -0.6674 -0.5046
vn 0.0324 -0.8958 -0.4433
vn 0.0305 -0.6674 -0.7441
vn -0.6481 -0.3556 -0.6735
vn -0.9345 -0.3556 -0.0180
vn -0.6735 -0.3556 0.6481
vn -0.0180 -0.3556 0.9345
vn 0.6481 -0.3556 0.6735
vn 0.9345 -0.3556 0.0180
vn 0.6735 -0.3556 -0.6481
vn 0.0180 -0.3556 -0.9345
vn -0.7071 0.0000 -0.7071
vn -0.7071 -0.0000 0.7071
vn 0.7071 0.0000 0.7071
vn 0.7071 0.0000 -0.7071
vn -0.6735 0.3556 -0.6481
vn -0.9345 0.3556 0.0180
vn -0.6481 0.3556 0.6735
vn 0.0180 0.3556 0.9345
vn 0.6735 0.3556 0.6481
vn 0.9345 0.3556 -0.0180
vn 0.6481 0.3556 -0.6735
vn -0.0180 0.3556 -0.9345
vn -0.5477 0.6674 -0.5046
vn -0.7441 0.6674 0.0305
vn -0.5046 0.6674 0.5477
vn 0.0305 0.6674 0.7441
vn 0.5477 0.6674 0.5046
vn 0.7441 0.6674 -0.0305
vn 0.5046 0.6674 -0.5477
vn -0.0305 0.6674 -0.7441
vn -0.3364 0.8958 -0.2906
vn -0.4433 0.8958 0.0324
vn -0.2906 0.8958 0.3364
vn 0.0324 0.8958 0.4433
vn 0.3364 0.8958 0.2906
vn 0.4433 0.8958 -0.0324
vn 0.2906 0.8958 -0.3364
vn -0.0324 0.8958 -0.4433
vn -0.5878 0.8090 0.0000
vn -0.9511 0.3090 0.0000
vn -0.9511 -0.3090 0.0000
vn -0.5878 -0.8090 0.0000
vn 0.5878 -0.8090 -0.0000
vn 0.9511 -0.3090 -0.0000
vn 0.9511 0.3090 -0.0000
vn 0.5878 0.8090 0.0000
vn -0.6431 0.2282 -0.7310
vn -0.3861 0.5626 -0.7310
vn -0.6408 0.2349 -0.7309
vn -0.3804 0.5667 -0.7309
vn -0.6544 -0.1934 -0.7310
vn -0.6565 -0.1866 -0.7309
vn -0.4157 -0.5411 -0.7310
vn -0.4214 -0.5369 -0.7309
vn -0.0183 -0.6821 -0.7310
vn -0.0254 -0.6820 -0.7309
vn 0.3861 -0.5626 -0.7310
vn 0.3804 -0.5667 -0.7309
vn 0.6431 -0.2282 -0.7310
vn 0.6408 -0.2349 -0.7309
vn 0.6544 0.1934 -0.7310
vn 0.6565 0.1866 -0.7309
vn 0.4157 0.5411 -0.7310
vn 0.4214 0.5369 -0.7309
vn 0.0183 0.6821 -0.7310
vn 0.0254 0.6820 -0.7309
usemtl lambert1
s 1
f 6/1/1 10/2/1 4/3/1
f 4/3/1 10/2/1 7/4/1
f 2/5/2 8/6/2 11/7/2
f 11/7/2 8/6/2 9/8/2
f 5/9/3 3/10/3 12/11/3
f 12/11/3 3/10/3 1/12/3
f 5/13/4 9/14/4 6/1/4
f 6/1/4 9/14/4 10/2/4
f 3/10/5 5/9/5 4/15/5
f 4/15/5 5/9/5 6/16/5
f 7/17/6 10/18/6 8/6/6
f 8/6/6 10/18/6 9/8/6
f 5/13/4 12/19/4 9/14/4
f 9/14/4 12/19/4 11/20/4
f 1/21/7 3/22/7 2/23/7
f 2/23/7 3/22/7 8/24/7
f 14/25/4 16/26/4 13/27/4
f 13/27/4 16/26/4 15/28/4
f 12/19/1 14/25/1 11/20/1
f 11/20/1 14/25/1 13/27/1
f 13/29/2 15/30/2 11/7/2
f 11/7/2 15/30/2 2/5/2
f 2/23/8 15/28/8 1/21/8
f 1/21/8 15/28/8 16/26/8
f 1/12/3 16/31/3 12/11/3
f 12/11/3 16/31/3 14/32/3
f 22/33/1 20/34/1 26/35/1
f 26/35/1 20/34/1 23/36/1
f 18/37/2 27/38/2 24/39/2
f 24/39/2 27/38/2 25/40/2
f 17/41/3 19/42/3 28/43/3
f 28/43/3 19/42/3 21/44/3
f 21/45/7 22/33/7 25/46/7
f 25/46/7 22/33/7 26/35/7
f 19/42/5 20/47/5 21/44/5
f 21/44/5 20/47/5 22/48/5
f 23/49/6 24/39/6 26/50/6
f 26/50/6 24/39/6 25/40/6
f 21/45/7 25/46/7 28/51/7
f 28/51/7 25/46/7 27/52/7
f 17/53/4 18/54/4 19/55/4
f 19/55/4 18/54/4 24/56/4
f 30/57/7 29/58/7 32/59/7
f 32/59/7 29/58/7 31/60/7
f 28/51/1 27/52/1 30/57/1
f 30/57/1 27/52/1 29/58/1
f 18/37/2 31/61/2 27/38/2
f 27/38/2 31/61/2 29/62/2
f 18/54/8 17/53/8 31/60/8
f 31/60/8 17/53/8 32/59/8
f 17/41/3 28/43/3 32/63/3
f 32/63/3 28/43/3 30/64/3
f 33/65/9 34/66/10 41/67/11
f 41/67/11 34/66/10 42/68/12
f 34/69/10 35/70/13 42/71/12
f 42/71/12 35/70/13 43/72/14
f 35/70/13 36/73/15 43/72/14
f 43/72/14 36/73/15 44/74/16
f 36/73/15 37/75/17 44/74/16
f 44/74/16 37/75/17 45/76/18
f 37/75/17 38/77/19 45/76/18
f 45/76/18 38/77/19 46/78/20
f 38/79/19 39/80/21 46/81/20
f 46/81/20 39/80/21 47/82/22
f 39/80/21 40/83/23 47/82/22
f 47/82/22 40/83/23 48/84/24
f 40/83/23 33/65/9 48/84/24
f 48/84/24 33/65/9 41/67/11
f 41/67/11 42/68/12 49/85/25
f 49/85/25 42/68/12 50/86/26
f 42/71/12 43/72/14 50/87/26
f 50/87/26 43/72/14 51/88/27
f 43/72/14 44/74/16 51/88/27
f 51/88/27 44/74/16 52/89/28
f 44/74/16 45/76/18 52/89/28
f 52/89/28 45/76/18 53/90/29
f 45/76/18 46/78/20 53/90/29
f 53/90/29 46/78/20 54/91/30
f 46/81/20 47/82/22 54/92/30
f 54/92/30 47/82/22 55/93/31
f 47/82/22 48/84/24 55/93/31
f 55/93/31 48/84/24 56/94/32
f 48/84/24 41/67/11 56/94/32
f 56/94/32 41/67/11 49/85/25
f 49/85/25 50/86/26 57/95/33
f 57/95/33 50/86/26 58/96/7
f 50/87/26 51/88/27 58/97/7
f 58/97/7 51/88/27 59/98/34
f 51/88/27 52/89/28 59/98/34
f 59/98/34 52/89/28 60/99/3
f 52/89/28 53/90/29 60/99/3
f 60/99/3 53/90/29 61/100/35
f 53/90/29 54/91/30 61/100/35
f 61/100/35 54/91/30 62/101/4
f 54/92/30 55/93/31 62/102/4
f 62/102/4 55/93/31 63/103/36
f 55/93/31 56/94/32 63/103/36
f 63/103/36 56/94/32 64/104/2
f 56/94/32 49/85/25 64/104/2
f 64/104/2 49/85/25 57/95/33
f 57/95/33 58/96/7 65/105/37
f 65/105/37 58/96/7 66/106/38
f 58/97/7 59/98/34 66/107/38
f 66/107/38 59/98/34 67/108/39
f 59/98/34 60/99/3 67/108/39
f 67/108/39 60/99/3 68/109/40
f 60/99/3 61/100/35 68/109/40
f 68/109/40 61/100/35 69/110/41
f 61/100/35 62/101/4 69/110/41
f 69/110/41 62/101/4 70/111/42
f 62/102/4 63/103/36 70/112/42
f 70/112/42 63/103/36 71/113/43
f 63/103/36 64/104/2 71/113/43
f 71/113/43 64/104/2 72/114/44
f 64/104/2 57/95/33 72/114/44
f 72/114/44 57/95/33 65/105/37
f 65/105/37 66/106/38 73/115/45
f 73/115/45 66/106/38 74/116/46
f 66/107/38 67/108/39 74/117/46
f 74/117/46 67/108/39 75/118/47
f 67/108/39 68/109/40 75/118/47
f 75/118/47 68/109/40 76/119/48
f 68/109/40 69/110/41 76/119/48
f 76/119/48 69/110/41 77/120/49
f 69/110/41 70/111/42 77/120/49
f 77/120/49 70/111/42 78/121/50
f 70/112/42 71/113/43 78/122/50
f 78/122/50 71/113/43 79/123/51
f 71/113/43 72/114/44 79/123/51
f 79/123/51 72/114/44 80/124/52
f 72/114/44 65/105/37 80/124/52
f 80/124/52 65/105/37 73/115/45
f 73/115/45 74/116/46 81/125/53
f 81/125/53 74/116/46 82/126/54
f 74/117/46 75/118/47 82/127/54
f 82/127/54 75/118/47 83/128/55
f 75/118/47 76/119/48 83/128/55
f 83/128/55 76/119/48 84/129/56
f 76/119/48 77/120/49 84/129/56
f 84/129/56 77/120/49 85/130/57
f 77/120/49 78/121/50 85/130/57
f 85/130/57 78/121/50 86/131/58
f 78/122/50 79/123/51 86/132/58
f 86/132/58 79/123/51 87/133/59
f 79/123/51 80/124/52 87/133/59
f 87/133/59 80/124/52 88/134/60
f 80/124/52 73/115/45 88/134/60
f 88/134/60 73/115/45 81/125/53
f 34/66/10 33/65/9 89/135/8
f 35/70/13 34/69/10 89/136/8
f 36/73/15 35/70/13 89/136/8
f 37/75/17 36/73/15 89/136/8
f 38/77/19 37/75/17 89/136/8
f 39/80/21 38/79/19 89/135/8
f 40/83/23 39/80/21 89/135/8
f 33/65/9 40/83/23 89/135/8
f 81/125/53 82/126/54 90/137/1
f 82/127/54 83/128/55 90/138/1
f 83/128/55 84/129/56 90/138/1
f 84/129/56 85/130/57 90/138/1
f 85/130/57 86/131/58 90/138/1
f 86/132/58 87/133/59 90/137/1
f 87/133/59 88/134/60 90/137/1
f 88/134/60 81/125/53 90/137/1
f 91/139/61 92/140/62 101/141/61
f 101/141/61 92/140/62 102/142/62
f 92/140/62 93/143/63 102/142/62
f 102/142/62 93/143/63 103/144/63
f 93/143/63 94/145/64 103/144/63
f 103/144/63 94/145/64 104/146/64
f 94/145/64 95/147/8 104/146/64
f 104/146/64 95/147/8 105/148/8
f 95/149/8 96/150/65 105/151/8
f 105/151/8 96/150/65 106/152/65
f 96/150/65 97/153/66 106/152/65
f 106/152/65 97/153/66 107/154/66
f 97/153/66 98/155/67 107/154/66
f 107/154/66 98/155/67 108/156/67
f 98/155/67 99/157/68 108/156/67
f 108/156/67 99/157/68 109/158/68
f 99/157/68 100/159/1 109/158/68
f 109/158/68 100/159/1 110/160/1
f 100/159/1 91/139/61 110/160/1
f 110/160/1 91/139/61 101/141/61
f 102/161/3 131/162/3 101/163/3
f 103/164/3 131/162/3 102/161/3
f 104/165/3 131/162/3 103/164/3
f 105/166/3 131/162/3 104/165/3
f 106/167/3 131/162/3 105/166/3
f 107/168/3 131/162/3 106/167/3
f 108/169/3 131/162/3 107/168/3
f 109/170/3 131/162/3 108/169/3
f 110/171/3 131/162/3 109/170/3
f 101/163/3 131/162/3 110/171/3
f 92/140/69 91/139/70 112/172/71
f 112/172/71 91/139/70 111/173/72
f 93/143/73 92/140/69 113/174/74
f 113/174/74 92/140/69 112/172/71
f 94/145/75 93/143/73 114/175/76
f 114/175/76 93/143/73 113/174/74
f 95/147/77 94/145/75 115/176/78
f 115/176/78 94/145/75 114/175/76
f 96/150/79 95/149/77 116/177/80
f 116/177/80 95/149/77 115/178/78
f 97/153/81 96/150/79 117/179/82
f 117/179/82 96/150/79 116/177/80
f 98/155/83 97/153/81 118/180/84
f 118/180/84 97/153/81 117/179/82
f 99/157/85 98/155/83 119/181/86
f 119/181/86 98/155/83 118/180/84
f 100/159/87 99/157/85 120/182/88
f 120/182/88 99/157/85 119/181/86
f 91/139/70 100/159/87 111/173/72
f 111/173/72 100/159/87 120/182/88
f 112/172/62 111/173/61 122/183/62
f 122/183/62 111/173/61 121/184/61
f 113/174/63 112/172/62 123/185/63
f 123/185/63 112/172/62 122/183/62
f 114/175/64 113/174/63 124/186/64
f 124/186/64 113/174/63 123/185/63
f 115/176/8 114/175/64 125/187/8
f 125/187/8 114/175/64 124/186/64
f 116/177/65 115/178/8 126/188/65
f 126/188/65 115/178/8 125/189/8
f 117/179/66 116/177/65 127/190/66
f 127/190/66 116/177/65 126/188/65
f 118/180/67 117/179/66 128/191/67
f 128/191/67 117/179/66 127/190/66
f 119/181/68 118/180/67 129/192/68
f 129/192/68 118/180/67 128/191/67
f 120/182/1 119/181/68 130/193/1
f 130/193/1 119/181/68 129/192/68
f 111/173/61 120/182/1 121/184/61
f 121/184/61 120/182/1 130/193/1
