# Blender v2.79 (sub 0) OBJ File: ''
# www.blender.org
mtllib obj_interactive_timer_off.mtl
o Orignal_No_history_Untitled.007
v 0.500000 0.666519 -0.358860
v 0.500000 0.666519 0.358860
v 0.411438 0.666519 0.358860
v 0.411438 0.666519 -0.358860
v 0.500000 0.313274 -0.358860
v 0.411438 0.313274 -0.358860
v 0.500000 1.000000 0.429436
v 0.500000 0.840126 -0.253668
v 0.500000 0.840126 0.272223
v 0.500000 0.913841 0.197029
v 0.500000 0.313274 0.358860
v 0.411438 0.313274 0.358860
v 0.500000 0.133946 -0.233623
v 0.411438 0.133946 -0.233623
v 0.500000 0.000000 -0.429436
v 0.500000 1.000000 -0.429436
v 0.500000 0.913841 -0.182884
v 0.500000 -0.000000 0.429436
v 0.500000 0.133946 0.233624
v 0.411438 0.133946 0.233624
v 0.429436 1.000000 -0.500000
v 0.429436 0.000000 -0.500000
v 0.429436 1.000000 0.500000
v 0.429436 -0.000000 0.500000
v 0.358860 0.666519 -0.500000
v 0.358860 0.313274 -0.500000
v -0.429436 1.000000 -0.500000
v -0.429436 1.000000 0.500000
v 0.358860 0.313274 0.500000
v 0.358860 0.666519 0.500000
v 0.358860 0.313274 -0.411438
v 0.358860 0.666519 -0.411438
v -0.358860 0.666519 -0.500000
v -0.255133 0.840286 -0.500000
v 0.270758 0.840286 -0.500000
v 0.199974 0.914002 -0.500000
v -0.179937 0.914002 -0.500000
v 0.215366 0.133946 -0.500000
v -0.358860 0.666519 0.500000
v -0.255133 0.840286 0.500000
v -0.179937 0.914001 0.500000
v 0.199974 0.914001 0.500000
v 0.270758 0.840286 0.500000
v -0.500000 1.000000 -0.429436
v -0.500000 1.000000 0.429436
v 0.358860 0.666519 0.411438
v 0.358860 0.313274 0.411438
v 0.215366 0.133946 0.500000
v -0.358860 0.666519 -0.411438
v 0.215366 0.133946 -0.411438
v -0.358860 0.313274 -0.500000
v -0.429436 0.000000 -0.500000
v -0.429436 -0.000000 0.500000
v -0.358860 0.313274 0.500000
v -0.358860 0.666519 0.411438
v -0.500000 -0.000000 0.429436
v -0.500000 0.000000 -0.429436
v -0.500000 0.666519 -0.358860
v -0.500000 0.840126 -0.253668
v -0.500000 0.913841 -0.182884
v -0.500000 0.913841 0.197029
v 0.215366 0.133946 0.411438
v -0.358860 0.313274 -0.411438
v -0.215366 0.133946 -0.500000
v -0.358860 0.313274 0.411438
v -0.215366 0.133946 0.500000
v -0.500000 0.313274 0.358860
v -0.500000 0.666519 0.358860
v -0.500000 0.313274 -0.358860
v -0.500000 0.840126 0.272223
v -0.215366 0.133946 -0.411438
v -0.215366 0.133946 0.411438
v -0.411438 0.666519 0.358860
v -0.411438 0.313274 0.358860
v -0.500000 0.133946 0.233624
v -0.411438 0.313274 -0.358860
v -0.411438 0.666519 -0.358860
v -0.500000 0.133946 -0.233623
v -0.411438 0.133946 0.233624
v -0.411438 0.133946 -0.233623
v 0.500000 0.000000 -0.233624
v 0.411438 0.000000 -0.233624
v 0.500000 -0.000000 0.233624
v 0.215366 -0.000000 0.500000
v 0.215366 -0.000000 0.411438
v -0.215366 -0.000000 0.500000
v -0.500000 -0.000000 0.233624
v -0.411438 -0.000000 0.233624
v -0.500000 0.000000 -0.233624
v -0.215366 0.000000 -0.500000
v -0.215366 0.000000 -0.411438
v 0.215366 0.000000 -0.500000
v 0.215366 0.000000 -0.411438
v -0.411438 0.000000 -0.233624
v 0.411438 -0.000000 0.233624
v -0.215366 -0.000000 0.411438
v 0.500000 -0.666519 -0.358860
v 0.500000 -0.666519 0.358860
v 0.411438 -0.666519 0.358860
v 0.411438 -0.666519 -0.358860
v 0.500000 -0.313274 -0.358860
v 0.411438 -0.313274 -0.358860
v 0.500000 -1.000000 0.429436
v 0.500000 -0.840126 -0.253668
v 0.500000 -0.840126 0.272222
v 0.500000 -0.913841 0.197029
v 0.500000 -0.313274 0.358860
v 0.411438 -0.313274 0.358860
v 0.500000 -0.133946 -0.233624
v 0.411438 -0.133946 -0.233624
v 0.500000 -1.000000 -0.429436
v 0.500000 -0.913841 -0.182884
v 0.500000 -0.133946 0.233623
v 0.411438 -0.133946 0.233623
v 0.429436 -1.000000 -0.500000
v 0.429436 -1.000000 0.500000
v 0.358860 -0.666519 -0.500000
v 0.358860 -0.313274 -0.500000
v -0.429436 -1.000000 -0.500000
v -0.429436 -1.000000 0.500000
v 0.358860 -0.313274 0.500000
v 0.358860 -0.666519 0.500000
v 0.358860 -0.313274 -0.411438
v 0.358860 -0.666519 -0.411438
v -0.358860 -0.666519 -0.500000
v -0.255133 -0.840286 -0.500000
v 0.270758 -0.840286 -0.500000
v 0.199974 -0.914001 -0.500000
v -0.179937 -0.914001 -0.500000
v 0.215366 -0.133946 -0.500000
v -0.358860 -0.666519 0.500000
v -0.255133 -0.840286 0.500000
v -0.179937 -0.914002 0.500000
v 0.199974 -0.914002 0.500000
v 0.270758 -0.840286 0.500000
v -0.500000 -1.000000 -0.429436
v -0.500000 -1.000000 0.429436
v 0.358860 -0.666519 0.411438
v 0.358860 -0.313274 0.411438
v 0.215366 -0.133946 0.500000
v -0.358860 -0.666519 -0.411438
v 0.215366 -0.133946 -0.411438
v -0.358860 -0.313274 -0.500000
v -0.358860 -0.313274 0.500000
v -0.358860 -0.666519 0.411438
v -0.500000 -0.666519 -0.358860
v -0.500000 -0.840126 -0.253668
v -0.500000 -0.913841 -0.182884
v -0.500000 -0.913841 0.197029
v 0.215366 -0.133946 0.411438
v -0.358860 -0.313274 -0.411438
v -0.215366 -0.133946 -0.500000
v -0.358860 -0.313274 0.411438
v -0.215366 -0.133946 0.500000
v -0.500000 -0.313274 0.358860
v -0.500000 -0.666519 0.358860
v -0.500000 -0.313274 -0.358860
v -0.500000 -0.840126 0.272222
v -0.215366 -0.133946 -0.411438
v -0.215366 -0.133946 0.411438
v -0.411438 -0.666519 0.358860
v -0.411438 -0.313274 0.358860
v -0.500000 -0.133946 0.233623
v -0.411438 -0.313274 -0.358860
v -0.411438 -0.666519 -0.358860
v -0.500000 -0.133946 -0.233624
v -0.411438 -0.133946 0.233623
v -0.411438 -0.133946 -0.233624
v -0.206097 -0.919853 -0.207470
v -0.206097 -0.919853 0.207468
v -0.206097 0.919846 0.207468
v -0.206097 0.919846 -0.207470
v 0.208839 0.919846 -0.207470
v 0.208839 -0.919846 -0.207470
v 0.208839 -0.919846 0.207468
v 0.208839 0.919846 0.207468
v -0.451366 0.666519 -0.452736
v -0.451366 0.666519 0.452736
v -0.451366 -0.666519 0.452736
v -0.451366 -0.666519 -0.452736
v 0.454109 -0.666519 -0.452736
v 0.454109 0.666519 -0.452736
v 0.454109 0.666519 0.452736
v 0.454109 -0.666519 0.452736
v -0.413567 -0.919853 -0.414940
v -0.413567 -0.919853 0.414936
v -0.413567 0.919846 0.414936
v -0.413567 0.919846 -0.414940
v 0.416309 0.919846 -0.414940
v 0.416309 -0.919846 -0.414940
v 0.416309 -0.919846 0.414936
v 0.416309 0.919846 0.414936
vt 0.910236 0.106274
vt 0.826568 0.106274
vt 0.910236 0.095950
vt 0.826568 0.095950
vt 0.644867 0.086663
vt 0.644844 0.045844
vt 0.655101 0.086657
vt 0.655078 0.045839
vt 0.956697 0.192471
vt 0.913819 0.213870
vt 0.956697 0.062581
vt 0.913819 0.036598
vt 0.908480 0.148374
vt 0.876235 0.148393
vt 0.908475 0.140290
vt 0.876231 0.140309
vt 0.644880 0.107384
vt 0.655113 0.107378
vt 0.826569 0.036598
vt 0.748839 0.019184
vt 0.996184 0.019167
vt 0.996184 0.231301
vt 0.974903 0.080063
vt 0.974903 0.173899
vt 0.748839 0.231284
vt 0.826569 0.213870
vt 0.859867 0.148402
vt 0.859862 0.140318
vt 0.782277 0.067530
vt 0.996182 0.001761
vt 0.748839 0.001766
vt 0.772599 0.070538
vt 0.780343 0.078281
vt 0.772599 0.180275
vt 0.780343 0.172532
vt 0.996184 0.236322
vt 0.748839 0.236334
vt 0.782277 0.182938
vt 0.847510 0.148410
vt 0.847505 0.140326
vt 0.996184 0.231301
vt 0.748839 0.231284
vt 0.913819 0.213870
vt 0.826569 0.213870
vt 0.678349 0.070538
vt 0.678349 0.180275
vt 0.826569 0.036598
vt 0.748839 0.019184
vt 0.913819 0.036598
vt 0.996184 0.019167
vt 0.909371 0.159102
vt 0.876867 0.159121
vt 0.909366 0.150953
vt 0.876862 0.150972
vt 0.956737 0.192109
vt 0.956737 0.062218
vt 0.913819 0.036598
vt 0.996184 0.019167
vt 0.974943 0.080791
vt 0.974903 0.173899
vt 0.782277 0.182938
vt 0.974903 0.173899
vt 0.996184 0.231301
vt 0.956737 0.192109
vt 0.913819 0.213870
vt 0.974903 0.080063
vt 0.956737 0.062218
vt 0.670605 0.078281
vt 0.670605 0.172532
vt 0.876318 0.129839
vt 0.908561 0.129820
vt 0.876322 0.137923
vt 0.908566 0.137904
vt 0.782277 0.067530
vt 0.803619 0.125925
vt 0.803619 0.062065
vt 0.811499 0.125925
vt 0.811499 0.062065
vt 0.860366 0.159130
vt 0.860361 0.150982
vt 0.826569 0.036598
vt 0.748839 0.019184
vt 0.748839 0.182938
vt 0.748839 0.231284
vt 0.826569 0.213870
vt 0.826435 0.040068
vt 0.910419 0.040068
vt 0.826435 0.050431
vt 0.910419 0.050431
vt 0.996184 0.236322
vt 0.748839 0.236334
vt 0.996184 0.231301
vt 0.996184 0.236322
vt 0.748839 0.231284
vt 0.748839 0.236334
vt 0.974903 0.173899
vt 0.956697 0.192471
vt 0.913819 0.213870
vt 0.859949 0.129848
vt 0.859953 0.137932
vt 0.616812 0.085660
vt 0.616789 0.044843
vt 0.627046 0.085654
vt 0.627023 0.044836
vt 0.847912 0.159125
vt 0.847904 0.150989
vt 0.782277 0.067530
vt 0.589805 0.200091
vt 0.589781 0.158817
vt 0.600152 0.200085
vt 0.600129 0.158811
vt 0.782277 0.182938
vt 0.826569 0.036598
vt 0.748839 0.019184
vt 0.914807 0.040153
vt 0.996184 0.019167
vt 0.826569 0.213870
vt 0.974903 0.080063
vt 0.956697 0.062581
vt 0.616825 0.106382
vt 0.627058 0.106376
vt 0.589769 0.137864
vt 0.600116 0.137858
vt 0.613530 0.158803
vt 0.613554 0.200078
vt 0.603182 0.158809
vt 0.603207 0.200083
vt 0.782277 0.067530
vt 0.640276 0.044829
vt 0.640300 0.085647
vt 0.630043 0.044835
vt 0.630067 0.085653
vt 0.782277 0.182938
vt 0.910906 0.092043
vt 0.825858 0.092043
vt 0.910906 0.081549
vt 0.825858 0.081549
vt 0.589759 0.122047
vt 0.600107 0.122041
vt 0.613518 0.137850
vt 0.603171 0.137856
vt 0.640312 0.106368
vt 0.630078 0.106374
vt 0.640321 0.122011
vt 0.630087 0.122017
vt 0.556641 0.110144
vt 0.610860 0.110144
vt 0.556641 0.007043
vt 0.610860 0.007043
vt 0.549343 0.007043
vt 0.510173 0.007043
vt 0.549343 0.110144
vt 0.510173 0.110144
vt 0.502421 0.110144
vt 0.502421 0.007043
vt 0.556641 0.110144
vt 0.502421 0.110144
vt 0.556641 0.007043
vt 0.502421 0.007043
vt 0.603563 0.110144
vt 0.564393 0.110144
vt 0.603563 0.007043
vt 0.564393 0.007043
vt 0.610860 0.110144
vt 0.610860 0.007043
vt 0.748839 0.067530
vt 0.655122 0.123021
vt 0.644889 0.123027
vt 0.748839 0.182938
vt 0.748839 0.067530
vt 0.847596 0.137939
vt 0.847592 0.129855
vt 0.748839 0.182938
vt 0.748839 0.067530
vt 0.603162 0.122038
vt 0.613509 0.122033
vt 0.748839 0.182938
vt 0.748839 0.067530
vt 0.627067 0.122019
vt 0.616834 0.122025
vt 0.910236 0.106274
vt 0.910236 0.095950
vt 0.826568 0.106274
vt 0.826568 0.095950
vt 0.644867 0.086663
vt 0.655101 0.086657
vt 0.644844 0.045844
vt 0.655078 0.045839
vt 0.974903 0.173899
vt 0.956697 0.192471
vt 0.996184 0.231301
vt 0.913819 0.213870
vt 0.908480 0.148374
vt 0.908475 0.140290
vt 0.876235 0.148393
vt 0.876231 0.140309
vt 0.644880 0.107384
vt 0.655113 0.107378
vt 0.826569 0.036598
vt 0.913819 0.036598
vt 0.996184 0.019167
vt 0.956697 0.062581
vt 0.974903 0.080063
vt 0.826569 0.213870
vt 0.859867 0.148402
vt 0.859862 0.140318
vt 0.782277 0.067530
vt 0.996182 0.001761
vt 0.772599 0.070538
vt 0.772599 0.180275
vt 0.780343 0.078281
vt 0.780343 0.172532
vt 0.996184 0.236322
vt 0.782277 0.182938
vt 0.826569 0.213870
vt 0.913819 0.213870
vt 0.996184 0.231301
vt 0.678349 0.070538
vt 0.678349 0.180275
vt 0.826569 0.036598
vt 0.913819 0.036598
vt 0.996184 0.019167
vt 0.909371 0.159102
vt 0.909366 0.150953
vt 0.876867 0.159121
vt 0.876862 0.150972
vt 0.974903 0.173899
vt 0.956737 0.192109
vt 0.913819 0.036598
vt 0.956737 0.062218
vt 0.996184 0.019167
vt 0.974943 0.080791
vt 0.782277 0.182938
vt 0.974903 0.080063
vt 0.974903 0.173899
vt 0.996184 0.231301
vt 0.956737 0.062218
vt 0.956737 0.192109
vt 0.913819 0.213870
vt 0.670605 0.078281
vt 0.670605 0.172532
vt 0.876318 0.129839
vt 0.876322 0.137923
vt 0.908561 0.129820
vt 0.908566 0.137904
vt 0.782277 0.067530
vt 0.803619 0.125925
vt 0.811499 0.125925
vt 0.803619 0.062065
vt 0.811499 0.062065
vt 0.860366 0.159130
vt 0.860361 0.150982
vt 0.826569 0.036598
vt 0.826569 0.213870
vt 0.826435 0.040068
vt 0.826435 0.050431
vt 0.910419 0.040068
vt 0.910419 0.050431
vt 0.996184 0.236322
vt 0.996184 0.231301
vt 0.996184 0.236322
vt 0.974903 0.080063
vt 0.974903 0.173899
vt 0.996184 0.019167
vt 0.859949 0.129848
vt 0.859953 0.137932
vt 0.616812 0.085660
vt 0.627046 0.085654
vt 0.616789 0.044843
vt 0.627023 0.044836
vt 0.782277 0.067530
vt 0.589805 0.200091
vt 0.600152 0.200085
vt 0.589781 0.158817
vt 0.600129 0.158811
vt 0.782277 0.182938
vt 0.826569 0.036598
vt 0.914807 0.040153
vt 0.826569 0.213870
vt 0.913819 0.213870
vt 0.956697 0.062581
vt 0.956697 0.192471
vt 0.616825 0.106382
vt 0.627058 0.106376
vt 0.589769 0.137864
vt 0.600116 0.137858
vt 0.613530 0.158803
vt 0.603182 0.158809
vt 0.613554 0.200078
vt 0.603207 0.200083
vt 0.782277 0.067530
vt 0.640276 0.044829
vt 0.630043 0.044835
vt 0.640300 0.085647
vt 0.630067 0.085653
vt 0.782277 0.182938
vt 0.910906 0.092043
vt 0.910906 0.081549
vt 0.825858 0.092043
vt 0.825858 0.081549
vt 0.613518 0.137850
vt 0.603171 0.137856
vt 0.640312 0.106368
vt 0.630078 0.106374
vt 0.556641 0.110144
vt 0.556641 0.007043
vt 0.610860 0.110144
vt 0.610860 0.007043
vt 0.549343 0.007043
vt 0.549343 0.110144
vt 0.510174 0.007043
vt 0.510174 0.110144
vt 0.502421 0.110144
vt 0.502421 0.007043
vt 0.556641 0.110144
vt 0.556641 0.007043
vt 0.502421 0.110144
vt 0.502421 0.007043
vt 0.603563 0.110144
vt 0.603563 0.007043
vt 0.564393 0.110144
vt 0.564393 0.007043
vt 0.610860 0.110144
vt 0.610860 0.007043
vt 0.909247 0.161767
vt 0.909247 0.207868
vt 0.903150 0.161765
vt 0.903150 0.207870
vt 0.903150 0.207870
vt 0.909247 0.207868
vt 0.909247 0.161767
vt 0.909247 0.207868
vt 0.903150 0.161765
vt 0.903150 0.207870
vt 0.909247 0.161767
vt 0.903150 0.161765
vt 0.899533 0.161767
vt 0.899533 0.207868
vt 0.893436 0.161765
vt 0.893436 0.207870
vt 0.893436 0.207870
vt 0.899533 0.207868
vt 0.899533 0.161767
vt 0.899533 0.207868
vt 0.893436 0.161765
vt 0.893436 0.207870
vt 0.899533 0.161767
vt 0.893436 0.161765
vt 0.002200 1.000000
vt 0.002200 0.812500
vt 0.001712 1.000000
vt 0.001712 0.812500
vt 0.001712 0.812500
vt 0.001712 1.000000
vt 0.002200 0.812500
vt 0.002200 1.000000
vt 0.002200 1.000000
vt 0.002200 0.812500
vt 0.001712 1.000000
vt 0.001712 0.812500
vt 0.002202 1.000000
vt 0.002202 0.812500
vt 0.001712 1.000000
vt 0.001712 0.812500
vn 0.0000 -1.0000 -0.0000
vn 0.0000 -0.0000 1.0000
vn 1.0000 0.0000 0.0000
vn 0.0000 0.0000 -1.0000
vn 0.0000 0.5726 0.8199
vn 0.0000 0.5726 -0.8199
vn 0.7071 0.0000 -0.7071
vn 0.0000 1.0000 0.0000
vn 0.7071 -0.0000 0.7071
vn -1.0000 0.0000 0.0000
vn -0.7808 0.6248 0.0000
vn -0.7071 -0.0000 0.7071
vn -0.7071 0.0000 -0.7071
vn 0.7808 0.6248 0.0000
vn 0.0000 -0.6926 0.7213
vn 0.0000 -0.7141 -0.7001
vn 0.7000 -0.7141 -0.0000
vn -0.7213 -0.6926 -0.0000
vn 0.0000 -0.5726 0.8199
vn 0.0000 -0.5726 -0.8199
vn -0.7808 -0.6248 -0.0000
vn 0.7808 -0.6248 -0.0000
vn 0.0000 0.6926 0.7213
vn 0.0000 0.7141 -0.7001
vn 0.7000 0.7141 0.0000
vn -0.7213 0.6926 0.0000
usemtl Timer
s 1
f 1/1/1 2/2/1 4/3/1
f 4/3/1 2/2/1 3/4/1
f 5/5/2 1/6/2 6/7/2
f 6/7/2 1/6/2 4/8/2
f 9/9/3 2/10/3 8/11/3
f 8/11/3 2/10/3 1/12/3
f 2/13/4 11/14/4 3/15/4
f 3/15/4 11/14/4 12/16/4
f 13/17/5 5/5/5 14/18/5
f 14/18/5 5/5/5 6/7/5
f 5/19/3 15/20/3 1/12/3
f 1/12/3 15/20/3 16/21/3
f 16/21/3 7/22/3 17/23/3
f 17/23/3 7/22/3 10/24/3
f 7/22/3 18/25/3 2/10/3
f 2/10/3 18/25/3 11/26/3
f 11/14/6 19/27/6 12/16/6
f 12/16/6 19/27/6 20/28/6
f 13/29/3 15/20/3 5/19/3
f 21/30/7 16/21/7 22/31/7
f 22/31/7 16/21/7 15/20/7
f 23/32/8 7/33/8 21/34/8
f 21/34/8 7/33/8 16/35/8
f 7/22/9 23/36/9 18/25/9
f 18/25/9 23/36/9 24/37/9
f 11/26/3 18/25/3 19/38/3
f 19/27/4 83/39/4 20/28/4
f 20/28/4 83/39/4 95/40/4
f 21/41/4 22/42/4 25/43/4
f 25/43/4 22/42/4 26/44/4
f 23/32/8 21/34/8 28/45/8
f 28/45/8 21/34/8 27/46/8
f 29/47/2 24/48/2 30/49/2
f 30/49/2 24/48/2 23/50/2
f 25/51/10 26/52/10 32/53/10
f 32/53/10 26/52/10 31/54/10
f 35/55/4 25/43/4 34/56/4
f 34/56/4 25/43/4 33/57/4
f 27/58/4 21/41/4 37/59/4
f 37/59/4 21/41/4 36/60/4
f 26/44/4 22/42/4 38/61/4
f 41/62/2 28/63/2 40/64/2
f 40/64/2 28/63/2 39/65/2
f 42/66/2 43/67/2 23/50/2
f 23/50/2 43/67/2 30/49/2
f 28/45/8 27/46/8 45/68/8
f 45/68/8 27/46/8 44/69/8
f 29/70/10 30/71/10 47/72/10
f 47/72/10 30/71/10 46/73/10
f 48/74/2 24/48/2 29/47/2
f 33/75/1 25/76/1 49/77/1
f 49/77/1 25/76/1 32/78/1
f 26/52/11 38/79/11 31/54/11
f 31/54/11 38/79/11 50/80/11
f 51/81/4 52/82/4 33/57/4
f 33/57/4 52/82/4 27/58/4
f 38/61/4 22/42/4 92/83/4
f 28/63/2 53/84/2 39/65/2
f 39/65/2 53/84/2 54/85/2
f 30/86/1 39/87/1 46/88/1
f 46/88/1 39/87/1 55/89/1
f 28/63/12 45/90/12 53/84/12
f 53/84/12 45/90/12 56/91/12
f 44/92/13 27/93/13 57/94/13
f 57/94/13 27/93/13 52/95/13
f 60/96/10 44/92/10 59/97/10
f 59/97/10 44/92/10 58/98/10
f 48/99/11 29/70/11 62/100/11
f 62/100/11 29/70/11 47/72/11
f 51/101/3 33/102/3 63/103/3
f 63/103/3 33/102/3 49/104/3
f 38/79/10 92/105/10 50/80/10
f 50/80/10 92/105/10 93/106/10
f 64/107/4 52/82/4 51/81/4
f 39/108/3 54/109/3 55/110/3
f 55/110/3 54/109/3 65/111/3
f 54/85/2 53/84/2 66/112/2
f 67/113/10 56/114/10 68/115/10
f 68/115/10 56/114/10 45/116/10
f 44/92/10 57/94/10 58/98/10
f 58/98/10 57/94/10 69/117/10
f 61/118/10 70/119/10 45/116/10
f 45/116/10 70/119/10 68/115/10
f 64/120/14 51/101/14 71/121/14
f 71/121/14 51/101/14 63/103/14
f 54/109/14 66/122/14 65/111/14
f 65/111/14 66/122/14 72/123/14
f 67/124/4 68/125/4 74/126/4
f 74/126/4 68/125/4 73/127/4
f 75/128/10 56/114/10 67/113/10
f 58/129/2 69/130/2 77/131/2
f 77/131/2 69/130/2 76/132/2
f 69/117/10 57/94/10 78/133/10
f 68/134/1 58/135/1 73/136/1
f 73/136/1 58/135/1 77/137/1
f 66/122/3 86/138/3 72/123/3
f 72/123/3 86/138/3 96/139/3
f 75/140/6 67/124/6 79/141/6
f 79/141/6 67/124/6 74/126/6
f 69/130/5 78/142/5 76/132/5
f 76/132/5 78/142/5 80/143/5
f 78/142/2 89/144/2 80/143/2
f 80/143/2 89/144/2 94/145/2
f 59/146/8 70/147/8 8/148/8
f 8/148/8 70/147/8 9/149/8
f 17/150/1 10/151/1 60/152/1
f 60/152/1 10/151/1 61/153/1
f 60/152/15 59/146/15 17/150/15
f 17/150/15 59/146/15 8/148/15
f 70/154/16 61/153/16 9/155/16
f 9/155/16 61/153/16 10/151/16
f 40/156/8 43/157/8 34/158/8
f 34/158/8 43/157/8 35/159/8
f 42/160/1 41/161/1 36/162/1
f 36/162/1 41/161/1 37/163/1
f 34/158/17 37/163/17 40/156/17
f 40/156/17 37/163/17 41/161/17
f 43/164/18 42/160/18 35/165/18
f 35/165/18 42/160/18 36/162/18
f 81/166/3 15/20/3 13/29/3
f 82/167/2 81/168/2 14/18/2
f 14/18/2 81/168/2 13/17/2
f 19/38/3 18/25/3 83/169/3
f 84/170/2 24/48/2 48/74/2
f 85/171/10 84/172/10 62/100/10
f 62/100/10 84/172/10 48/99/10
f 66/112/2 53/84/2 86/173/2
f 87/174/10 56/114/10 75/128/10
f 88/175/4 87/176/4 79/141/4
f 79/141/4 87/176/4 75/140/4
f 78/133/10 57/94/10 89/177/10
f 90/178/4 52/82/4 64/107/4
f 91/179/3 90/180/3 71/121/3
f 71/121/3 90/180/3 64/120/3
f 97/181/8 100/182/8 98/183/8
f 98/183/8 100/182/8 99/184/8
f 101/185/2 102/186/2 97/187/2
f 97/187/2 102/186/2 100/188/2
f 106/189/3 105/190/3 103/191/3
f 103/191/3 105/190/3 98/192/3
f 98/193/4 99/194/4 107/195/4
f 107/195/4 99/194/4 108/196/4
f 109/197/19 110/198/19 101/185/19
f 101/185/19 110/198/19 102/186/19
f 101/199/3 97/200/3 15/20/3
f 15/20/3 97/200/3 111/201/3
f 97/200/3 104/202/3 111/201/3
f 111/201/3 104/202/3 112/203/3
f 107/204/3 18/25/3 98/192/3
f 98/192/3 18/25/3 103/191/3
f 107/195/20 108/196/20 113/205/20
f 113/205/20 108/196/20 114/206/20
f 109/207/3 101/199/3 15/20/3
f 115/208/7 22/31/7 111/201/7
f 111/201/7 22/31/7 15/20/7
f 116/209/1 115/210/1 103/211/1
f 103/211/1 115/210/1 111/212/1
f 103/191/9 18/25/9 116/213/9
f 116/213/9 18/25/9 24/37/9
f 107/204/3 113/214/3 18/25/3
f 113/205/4 114/206/4 83/39/4
f 83/39/4 114/206/4 95/40/4
f 118/215/4 22/42/4 117/216/4
f 117/216/4 22/42/4 115/217/4
f 116/209/1 120/218/1 115/210/1
f 115/210/1 120/218/1 119/219/1
f 121/220/2 122/221/2 24/48/2
f 24/48/2 122/221/2 116/222/2
f 117/223/10 124/224/10 118/225/10
f 118/225/10 124/224/10 123/226/10
f 128/227/4 127/228/4 115/217/4
f 115/217/4 127/228/4 117/216/4
f 125/229/4 126/230/4 119/231/4
f 119/231/4 126/230/4 129/232/4
f 118/215/4 130/233/4 22/42/4
f 134/234/2 133/235/2 116/222/2
f 116/222/2 133/235/2 120/236/2
f 135/237/2 122/221/2 132/238/2
f 132/238/2 122/221/2 131/239/2
f 120/218/1 137/240/1 119/219/1
f 119/219/1 137/240/1 136/241/1
f 121/242/10 139/243/10 122/244/10
f 122/244/10 139/243/10 138/245/10
f 140/246/2 121/220/2 24/48/2
f 125/247/8 141/248/8 117/249/8
f 117/249/8 141/248/8 124/250/8
f 118/225/21 123/226/21 130/251/21
f 130/251/21 123/226/21 142/252/21
f 143/253/4 125/229/4 52/82/4
f 52/82/4 125/229/4 119/231/4
f 130/233/4 92/83/4 22/42/4
f 144/254/2 53/84/2 131/239/2
f 131/239/2 53/84/2 120/236/2
f 122/255/8 138/256/8 131/257/8
f 131/257/8 138/256/8 145/258/8
f 120/236/12 53/84/12 137/259/12
f 137/259/12 53/84/12 56/91/12
f 136/260/13 57/94/13 119/261/13
f 119/261/13 57/94/13 52/95/13
f 149/262/10 148/263/10 137/264/10
f 137/264/10 148/263/10 136/260/10
f 140/265/21 150/266/21 121/242/21
f 121/242/21 150/266/21 139/243/21
f 143/267/3 151/268/3 125/269/3
f 125/269/3 151/268/3 141/270/3
f 130/251/10 142/252/10 92/105/10
f 92/105/10 142/252/10 93/106/10
f 152/271/4 143/253/4 52/82/4
f 131/272/3 145/273/3 144/274/3
f 144/274/3 145/273/3 153/275/3
f 144/254/2 154/276/2 53/84/2
f 155/277/10 156/278/10 56/114/10
f 56/114/10 156/278/10 137/264/10
f 157/279/10 57/94/10 146/280/10
f 146/280/10 57/94/10 136/260/10
f 158/281/10 156/278/10 147/282/10
f 147/282/10 156/278/10 146/280/10
f 152/283/22 159/284/22 143/267/22
f 143/267/22 159/284/22 151/268/22
f 144/274/22 153/275/22 154/285/22
f 154/285/22 153/275/22 160/286/22
f 155/287/4 162/288/4 156/289/4
f 156/289/4 162/288/4 161/290/4
f 163/291/10 155/277/10 56/114/10
f 146/292/2 165/293/2 157/294/2
f 157/294/2 165/293/2 164/295/2
f 157/279/10 166/296/10 57/94/10
f 156/297/8 161/298/8 146/299/8
f 146/299/8 161/298/8 165/300/8
f 154/285/3 160/286/3 86/138/3
f 86/138/3 160/286/3 96/139/3
f 163/301/20 167/302/20 155/287/20
f 155/287/20 167/302/20 162/288/20
f 157/294/19 164/295/19 166/303/19
f 166/303/19 164/295/19 168/304/19
f 166/303/2 168/304/2 89/144/2
f 89/144/2 168/304/2 94/145/2
f 147/305/1 104/306/1 158/307/1
f 158/307/1 104/306/1 105/308/1
f 112/309/8 148/310/8 106/311/8
f 106/311/8 148/310/8 149/312/8
f 148/310/23 112/309/23 147/305/23
f 147/305/23 112/309/23 104/306/23
f 158/313/24 105/314/24 149/312/24
f 149/312/24 105/314/24 106/311/24
f 132/315/1 126/316/1 135/317/1
f 135/317/1 126/316/1 127/318/1
f 134/319/8 128/320/8 133/321/8
f 133/321/8 128/320/8 129/322/8
f 126/316/25 132/315/25 129/322/25
f 129/322/25 132/315/25 133/321/25
f 135/323/26 127/324/26 134/319/26
f 134/319/26 127/324/26 128/320/26
f 81/166/3 109/207/3 15/20/3
f 82/167/2 110/198/2 81/168/2
f 81/168/2 110/198/2 109/197/2
f 113/214/3 83/169/3 18/25/3
f 84/170/2 140/246/2 24/48/2
f 85/171/10 150/266/10 84/172/10
f 84/172/10 150/266/10 140/265/10
f 154/276/2 86/173/2 53/84/2
f 87/174/10 163/291/10 56/114/10
f 88/175/4 167/302/4 87/176/4
f 87/176/4 167/302/4 163/301/4
f 166/296/10 89/177/10 57/94/10
f 90/178/4 152/271/4 52/82/4
f 91/179/3 159/284/3 90/180/3
f 90/180/3 159/284/3 152/283/3
f 169/325/10 170/326/10 172/327/10
f 172/327/10 170/326/10 171/328/10
f 172/327/4 173/329/4 169/325/4
f 169/325/4 173/329/4 174/330/4
f 170/331/2 175/332/2 171/333/2
f 171/333/2 175/332/2 176/334/2
f 175/335/3 174/330/3 176/336/3
f 176/336/3 174/330/3 173/329/3
f 185/337/10 186/338/10 188/339/10
f 188/339/10 186/338/10 187/340/10
f 188/339/4 189/341/4 185/337/4
f 185/337/4 189/341/4 190/342/4
f 186/343/2 191/344/2 187/345/2
f 187/345/2 191/344/2 192/346/2
f 191/347/3 190/342/3 192/348/3
f 192/348/3 190/342/3 189/341/3
f 44/92/10 60/96/10 45/116/10
f 45/116/10 60/96/10 61/118/10
f 70/119/10 59/97/10 68/115/10
f 68/115/10 59/97/10 58/98/10
f 156/278/10 158/281/10 137/264/10
f 137/264/10 158/281/10 149/262/10
f 148/263/10 147/282/10 136/260/10
f 136/260/10 147/282/10 146/280/10
f 122/221/2 135/237/2 116/222/2
f 116/222/2 135/237/2 134/234/2
f 133/235/2 132/238/2 120/236/2
f 120/236/2 132/238/2 131/239/2
f 43/67/2 40/64/2 30/49/2
f 30/49/2 40/64/2 39/65/2
f 28/63/2 41/62/2 23/50/2
f 23/50/2 41/62/2 42/66/2
f 2/10/3 9/9/3 7/22/3
f 7/22/3 9/9/3 10/24/3
f 17/23/3 8/11/3 16/21/3
f 16/21/3 8/11/3 1/12/3
f 105/190/3 104/202/3 98/192/3
f 98/192/3 104/202/3 97/200/3
f 111/201/3 112/203/3 103/191/3
f 103/191/3 112/203/3 106/189/3
f 127/228/4 126/230/4 117/216/4
f 117/216/4 126/230/4 125/229/4
f 119/231/4 129/232/4 115/217/4
f 115/217/4 129/232/4 128/227/4
f 37/59/4 34/56/4 27/58/4
f 27/58/4 34/56/4 33/57/4
f 25/43/4 35/55/4 21/41/4
f 21/41/4 35/55/4 36/60/4
usemtl timer_screen
f 177/349/10 180/350/10 178/351/10
f 178/351/10 180/350/10 179/352/10
f 180/353/4 177/354/4 181/355/4
f 181/355/4 177/354/4 182/356/4
f 178/357/2 179/358/2 183/359/2
f 183/359/2 179/358/2 184/360/2
f 183/361/3 184/362/3 182/363/3
f 182/363/3 184/362/3 181/364/3
